<?xml version="1.0" standalone="no"?>
<!DOCTYPE svg PUBLIC "-//W3C//DTD SVG 20010904//EN"
 "http://www.w3.org/TR/2001/REC-SVG-20010904/DTD/svg10.dtd">
<svg version="1.0" xmlns="http://www.w3.org/2000/svg"
 width="1849.000000pt" height="1821.000000pt" viewBox="0 0 1849.000000 1821.000000"
 preserveAspectRatio="xMidYMid meet">

<g transform="translate(0.000000,1821.000000) scale(0.100000,-0.100000)"
fill="#000000" stroke="none">
<path d="M2177 18185 c-4 -5 -148 -12 -320 -16 -509 -12 -718 -37 -936 -109
-68 -23 -166 -50 -217 -60 -51 -11 -128 -28 -171 -39 -43 -11 -116 -24 -163
-30 -47 -6 -116 -22 -153 -37 -100 -39 -107 -53 -107 -229 0 -77 -5 -178 -10
-225 -8 -59 -7 -338 1 -915 6 -456 12 -1388 13 -2070 1 -682 5 -1625 10 -2095
9 -877 9 -868 -30 -1410 -8 -113 -19 -380 -24 -595 -5 -214 -20 -520 -32 -680
-25 -333 -29 -905 -15 -2000 10 -790 21 -1021 68 -1354 36 -264 43 -548 40
-1555 -2 -811 0 -982 14 -1179 14 -183 16 -313 12 -627 -3 -217 -11 -444 -17
-505 -12 -110 -11 -249 9 -1305 7 -336 12 -426 35 -605 49 -394 54 -403 231
-430 44 -7 121 -20 170 -28 50 -9 167 -21 260 -27 94 -6 213 -15 265 -21 52
-5 300 -14 550 -20 370 -9 495 -9 670 2 160 11 408 13 970 10 1650 -8 2315 -6
2555 6 132 7 353 18 490 23 266 12 457 28 700 60 127 17 485 56 685 75 375 36
954 52 2350 65 487 5 905 11 930 14 77 10 573 44 815 56 153 8 962 13 2415 15
2019 3 2436 8 2575 30 17 2 221 9 455 15 445 11 545 19 622 52 107 46 119 82
129 378 4 129 12 282 18 340 6 58 24 316 41 575 16 259 38 578 47 710 15 196
18 365 18 925 -1 660 -2 696 -28 990 -15 168 -29 337 -32 375 -30 390 -48
2732 -25 3185 20 386 61 966 85 1205 47 474 66 694 85 995 11 184 34 526 50
760 75 1073 94 1822 110 4185 5 841 13 1505 20 1595 11 165 25 346 40 525 6
61 10 182 10 270 1 88 5 237 9 330 9 183 6 199 -41 241 -13 12 -44 25 -71 29
-27 3 -67 13 -89 21 -37 13 -116 20 -493 42 -199 12 -881 8 -1050 -5 -169 -14
-2062 -38 -2950 -38 -308 0 -747 6 -975 13 -228 7 -739 15 -1135 18 -714 6
-722 6 -1023 -20 -263 -23 -355 -26 -695 -26 -576 1 -1647 18 -1837 30 -210
12 -647 35 -1045 55 -379 18 -1141 20 -1500 2 -294 -14 -521 -13 -840 3 -360
17 -2536 47 -2548 35z m693 -71 c91 -3 426 -9 745 -14 319 -5 738 -15 930 -22
374 -14 469 -14 1555 -3 497 5 779 4 955 -4 536 -26 856 -42 985 -51 200 -14
1611 -32 2095 -27 320 4 457 9 575 23 135 16 237 18 790 19 349 0 876 -7 1170
-15 610 -16 1384 -19 2255 -7 1537 22 1844 28 1900 36 170 26 1319 1 1414 -31
20 -6 60 -16 90 -22 l53 -11 -1 -230 c-2 -255 -17 -662 -25 -685 -27 -73 -42
-750 -55 -2375 -17 -2113 -39 -2921 -106 -3855 -8 -113 -26 -394 -40 -625 -14
-231 -43 -607 -65 -835 -41 -423 -55 -602 -92 -1160 -18 -272 -21 -445 -25
-1260 -7 -1273 12 -2032 65 -2590 26 -278 26 -304 27 -1005 0 -590 -3 -763
-17 -960 -18 -247 -24 -338 -58 -875 -11 -173 -27 -387 -35 -475 -8 -88 -15
-227 -15 -308 0 -180 -9 -209 -73 -237 -71 -32 -164 -39 -553 -46 -203 -3
-466 -13 -584 -21 -186 -14 -514 -17 -2435 -19 -2286 -2 -2408 -4 -2945 -45
-140 -10 -325 -24 -410 -30 -85 -6 -549 -15 -1030 -20 -1717 -16 -2033 -30
-2800 -125 -336 -41 -472 -53 -735 -64 -294 -12 -601 -27 -882 -41 -144 -7
-424 -6 -980 3 -956 16 -1810 13 -2138 -7 -286 -17 -899 -12 -1210 10 -110 8
-270 20 -355 26 -85 6 -198 19 -250 29 -52 10 -115 22 -140 25 -64 10 -96 30
-109 66 -11 33 -29 157 -60 429 -34 298 -49 1549 -22 1920 15 217 10 914 -9
1095 -6 61 -9 465 -9 1030 1 1070 -8 1346 -56 1675 -7 52 -18 156 -24 230 -6
74 -14 160 -17 190 -3 30 -9 345 -14 700 -5 355 -12 834 -16 1065 -7 424 1
682 31 1115 8 113 22 414 30 668 8 255 17 487 20 515 44 446 49 957 26 2322
-9 537 -12 1082 -8 1580 5 572 3 845 -8 1105 -7 190 -16 602 -20 915 -6 570
-2 680 33 964 l7 55 60 23 c33 13 98 27 145 32 47 5 121 18 165 29 44 11 121
28 170 37 50 9 142 32 205 51 145 43 232 60 390 73 69 6 145 14 170 16 25 3
182 10 350 16 168 5 341 13 385 18 80 8 325 6 635 -5z"/>
<path d="M2390 17940 c-129 -5 -296 -13 -370 -19 -74 -7 -317 -16 -540 -21
-386 -8 -571 -22 -685 -51 -104 -26 -199 -64 -255 -100 -34 -22 -82 -49 -106
-60 -106 -51 -175 -145 -209 -289 -26 -106 -34 -473 -12 -533 17 -49 34 -249
47 -562 5 -121 16 -267 24 -325 9 -58 16 -155 16 -216 0 -237 40 -493 95 -609
41 -86 104 -148 167 -165 23 -7 71 -21 105 -31 34 -11 101 -24 150 -30 48 -5
111 -16 138 -24 35 -10 132 -16 330 -20 388 -8 659 -23 865 -48 155 -19 225
-22 610 -22 409 0 442 1 555 22 254 48 579 63 1385 66 738 2 727 3 802 -74 61
-62 131 -202 162 -321 13 -51 29 -156 36 -233 11 -138 19 -186 59 -375 38
-179 60 -437 66 -775 7 -368 19 -650 40 -885 8 -91 17 -205 21 -255 3 -49 21
-243 40 -430 19 -187 41 -471 49 -632 7 -161 16 -297 20 -303 10 -16 53 -12
63 8 5 9 13 35 17 57 3 22 22 87 40 145 19 58 39 134 44 170 15 102 17 1576 2
1675 -14 89 -24 396 -41 1230 -6 326 -17 623 -25 710 -8 83 -18 201 -22 264
l-6 114 94 -6 c52 -3 151 -12 221 -20 89 -11 148 -13 195 -6 37 4 94 8 127 9
94 0 280 40 420 89 33 12 71 21 85 21 14 1 50 13 80 29 43 22 60 39 87 87 l35
59 -6 -60 c-3 -33 -12 -157 -21 -275 -8 -118 -19 -253 -24 -300 -15 -138 -58
-738 -70 -970 -6 -118 -20 -296 -31 -395 -14 -126 -23 -302 -29 -585 -9 -421
-26 -901 -35 -1005 -3 -33 -12 -145 -21 -250 -19 -221 -24 -753 -10 -1125 l9
-245 41 -37 c184 -168 192 -174 277 -205 46 -17 111 -41 144 -53 75 -29 213
-37 334 -21 63 9 111 9 179 1 53 -6 404 -12 805 -15 738 -5 1166 -18 1252 -37
28 -6 136 -12 240 -13 l190 -1 57 -36 c31 -20 71 -53 90 -73 39 -43 110 -87
234 -143 49 -22 143 -70 209 -106 98 -54 128 -66 166 -66 55 0 79 21 79 69 0
47 -79 175 -170 279 -111 125 -183 219 -176 231 4 5 23 15 42 21 20 7 51 22
69 35 31 20 47 22 281 28 272 8 309 13 309 43 0 26 -42 28 -345 15 -223 -10
-247 -13 -273 -32 -15 -11 -50 -27 -77 -35 -101 -30 -106 -72 -23 -183 31 -42
87 -108 124 -147 73 -77 193 -250 183 -265 -12 -20 -54 -6 -153 51 -57 34
-162 90 -233 126 -106 54 -141 78 -201 137 -40 40 -97 85 -127 102 l-55 30
-155 -3 c-85 -1 -177 2 -205 8 -117 25 -500 40 -1240 51 -685 9 -957 11 -1230
8 -57 -1 -96 4 -135 19 -30 10 -95 33 -144 51 -74 26 -99 40 -151 88 -34 32
-78 72 -97 88 l-36 30 -7 450 c-8 487 -5 621 25 1014 19 250 33 610 50 1291 5
184 15 396 24 470 8 74 18 223 21 330 7 234 30 645 50 900 8 102 17 241 20
310 4 69 13 159 20 200 8 41 22 142 30 223 16 150 23 178 68 278 38 83 80 113
187 133 48 9 125 27 171 40 160 47 444 115 538 130 51 9 177 18 280 22 102 3
242 13 311 21 69 9 224 17 345 19 176 2 241 7 325 25 82 16 164 23 375 29 299
10 456 23 765 65 58 8 190 22 294 30 104 9 192 17 195 19 20 12 272 38 486 51
138 8 320 24 405 35 99 14 258 24 440 30 166 5 333 16 400 26 176 26 1224 32
1545 10 127 -9 309 -21 405 -26 241 -13 634 -47 755 -65 55 -8 181 -26 280
-39 99 -14 209 -34 245 -46 44 -14 112 -24 210 -30 131 -8 472 -70 610 -109
19 -6 81 -17 136 -26 56 -8 114 -19 129 -25 14 -5 78 -10 140 -10 63 0 124 -5
137 -11 13 -6 39 -32 59 -58 20 -26 77 -78 127 -115 54 -41 97 -81 106 -100
15 -32 44 -193 65 -356 6 -47 13 -299 16 -561 4 -445 3 -485 -16 -615 -17
-113 -21 -203 -25 -474 -4 -356 -6 -380 -59 -645 -49 -241 -83 -509 -95 -740
-5 -110 -19 -279 -30 -375 -10 -96 -26 -245 -35 -330 -14 -137 -38 -267 -105
-560 -10 -47 -26 -133 -34 -191 -19 -142 -48 -189 -147 -240 -34 -17 -74 -48
-100 -79 -120 -140 -118 -139 -253 -205 -126 -61 -138 -65 -291 -91 -150 -24
-174 -26 -400 -21 -132 3 -384 10 -560 17 -176 7 -354 9 -395 6 -41 -3 -201
-10 -355 -16 -154 -5 -325 -16 -380 -24 -55 -9 -174 -16 -265 -16 -91 -1 -201
-6 -245 -11 -44 -6 -262 -13 -485 -18 -380 -7 -409 -9 -464 -29 -36 -13 -82
-22 -118 -22 -52 0 -60 -3 -67 -22 -8 -22 -9 -22 -30 12 -22 36 -32 63 -51
137 -12 49 -107 154 -120 133 -10 -17 -78 27 -164 107 -43 40 -77 63 -92 63
-26 0 -174 -33 -219 -49 l-30 -11 28 25 c39 35 26 31 -51 -14 -37 -21 -78 -42
-90 -46 -40 -12 -145 -66 -180 -92 -19 -14 -49 -49 -68 -79 -19 -29 -50 -66
-69 -81 -24 -19 -35 -36 -35 -54 0 -19 -23 -50 -89 -117 -106 -107 -151 -178
-151 -239 0 -37 4 -44 30 -58 17 -9 30 -19 30 -22 0 -4 -21 -29 -47 -55 -37
-37 -44 -51 -35 -60 9 -9 26 2 74 52 34 35 64 58 66 52 1 -5 -11 -38 -28 -72
-17 -34 -29 -65 -25 -68 3 -4 10 0 15 8 6 10 10 -20 10 -86 0 -90 4 -111 30
-175 l29 -73 -20 -14 c-30 -21 -49 -73 -49 -132 0 -69 19 -101 79 -134 50 -27
65 -46 36 -46 -20 0 -35 -32 -35 -76 0 -31 8 -46 38 -77 37 -38 37 -38 43
-145 13 -221 106 -343 279 -361 52 -6 55 -8 55 -34 0 -32 44 -67 85 -67 14 0
43 -11 65 -25 57 -35 83 -32 76 8 -1 5 7 16 16 25 10 9 14 14 9 10 -16 -13
-36 -9 -36 7 0 8 5 15 12 15 6 0 40 14 75 30 36 17 80 30 102 30 43 0 93 31
176 110 28 26 67 57 88 70 37 22 44 42 16 48 -8 1 -51 -21 -97 -50 -46 -29
-106 -67 -135 -85 -29 -17 -67 -44 -85 -59 -70 -57 -200 -86 -296 -65 -37 8
-47 31 -13 31 13 0 73 25 133 56 115 59 134 71 134 85 0 15 -37 10 -98 -12
-93 -34 -92 -34 -93 -8 -1 20 -2 19 -8 -6 -7 -36 -49 -54 -126 -54 -73 -1
-121 13 -177 51 -67 44 -107 129 -115 238 -7 102 -27 162 -63 189 -47 34 -39
111 12 111 10 0 18 3 18 6 0 14 -43 75 -62 88 -19 14 -20 20 -12 103 8 76 12
88 29 91 38 7 45 22 45 97 0 63 2 73 18 71 9 0 23 -6 30 -13 25 -24 42 -4 42
53 0 39 4 54 14 54 8 0 24 9 37 20 l24 19 -35 0 c-19 0 -55 -4 -79 -10 -24 -5
-46 -7 -50 -4 -3 4 -4 48 -3 98 l3 92 51 51 c36 37 70 59 118 79 62 25 76 27
142 21 40 -4 88 -9 106 -13 20 -3 32 -1 32 6 0 6 -8 11 -17 11 -26 0 -47 16
-39 28 4 7 20 2 43 -13 20 -14 45 -25 56 -25 14 0 0 13 -40 38 -34 20 -72 45
-85 54 -22 17 -21 17 39 11 52 -5 64 -3 69 11 8 22 27 20 20 -2 -7 -22 61
-139 154 -264 70 -95 97 -115 57 -43 -34 60 -20 57 22 -5 19 -28 36 -48 38
-46 7 7 -11 35 -114 183 -54 76 -105 152 -113 169 -22 45 -32 56 -40 45 -5
-10 -97 31 -110 49 -13 17 -36 17 -36 -1 0 -10 5 -18 11 -17 17 4 95 -46 95
-61 0 -8 -6 -11 -17 -6 -10 3 -40 11 -66 18 -40 9 -47 14 -43 29 3 16 2 17
-10 8 -10 -9 -22 -9 -45 -1 -31 11 -32 10 -15 -8 16 -18 15 -20 -14 -45 -33
-27 -56 -35 -44 -13 5 6 -8 0 -28 -15 -20 -16 -39 -28 -42 -28 -12 0 -5 28 9
40 9 7 30 32 48 54 l32 41 -57 -47 c-31 -27 -60 -48 -64 -48 -4 0 -16 -7 -26
-17 -10 -9 -21 -14 -23 -11 -7 7 115 118 129 118 6 0 38 25 71 55 33 30 68 55
78 55 17 0 73 -33 87 -50 3 -4 26 -12 51 -19 44 -12 47 -15 94 -109 70 -139
173 -292 196 -292 12 0 2 22 -82 170 -112 197 -177 318 -184 339 -3 11 -13 22
-21 25 -27 10 -27 -23 0 -69 32 -54 24 -56 -61 -15 -56 26 -81 50 -52 50 5 0
8 4 5 8 -3 5 19 21 49 38 48 25 56 27 69 14 8 -8 55 -87 104 -175 50 -88 112
-191 140 -230 27 -38 53 -81 57 -95 17 -53 171 -277 183 -265 2 1 -25 40 -59
85 -51 68 -168 281 -201 365 -16 40 31 -29 68 -100 62 -119 105 -177 202 -273
52 -51 92 -95 90 -97 -2 -2 -21 -6 -43 -8 -54 -6 -80 -41 -77 -104 2 -54 7
-61 30 -45 9 6 33 19 52 27 19 9 42 23 52 31 27 26 38 7 38 -65 0 -62 -3 -73
-38 -127 -21 -32 -46 -65 -55 -73 -24 -19 -23 -54 2 -46 16 5 19 -3 25 -71 11
-141 8 -206 -14 -239 -25 -38 -28 -64 -4 -44 14 11 15 1 9 -112 -3 -68 -8
-140 -11 -159 l-4 -35 24 29 c25 29 36 82 36 167 0 27 4 49 9 49 24 0 61 -68
61 -109 0 -34 6 -49 30 -72 49 -50 66 -20 29 52 -31 61 -17 71 22 15 112 -164
260 -348 369 -461 136 -142 192 -219 274 -379 l53 -104 7 -273 c4 -151 12
-310 17 -354 13 -118 11 -295 -4 -325 -10 -20 -25 -27 -77 -37 -105 -20 -103
-21 -79 35 53 122 79 366 79 750 0 237 -2 273 -15 279 -9 3 -19 3 -22 -1 -4
-3 -10 -140 -14 -304 -8 -309 -27 -529 -59 -684 -10 -49 -20 -91 -22 -93 -2
-2 -38 -13 -80 -24 -43 -12 -103 -33 -133 -46 -37 -17 -74 -25 -110 -25 -54 0
-55 1 -55 28 0 16 -6 37 -14 48 -19 25 -50 8 -54 -30 -2 -14 -7 -26 -12 -26
-11 0 -16 30 -30 165 -7 61 -32 211 -57 335 -40 203 -44 234 -39 319 4 66 12
106 26 133 11 21 20 48 20 59 0 35 40 116 63 127 22 10 22 11 1 11 -52 2 -94
-102 -134 -333 -19 -110 -10 -306 14 -306 14 0 47 -161 71 -345 29 -216 28
-210 53 -213 l22 -3 -3 -347 c-2 -309 0 -350 15 -378 11 -20 13 -35 7 -45 -5
-8 -9 -39 -9 -69 -1 -77 -68 -569 -80 -583 -4 -4 -37 0 -75 8 -76 18 -138 17
-475 -8 -113 -9 -223 -21 -244 -27 -90 -27 -455 20 -502 64 -6 6 -14 37 -18
69 -7 63 -5 64 53 47 20 -5 40 -6 50 0 13 7 10 10 -14 15 -17 3 -50 14 -75 23
l-45 18 -6 129 c-13 248 -10 483 5 544 37 140 66 530 67 886 0 160 3 232 10
217 11 -28 33 -24 37 6 4 29 22 18 22 -14 0 -13 5 -24 10 -24 13 0 13 12 0 44
-6 17 -4 82 7 201 9 96 13 178 9 182 -17 17 -36 -29 -46 -112 -17 -139 -20
-155 -29 -155 -14 0 -21 99 -22 335 0 127 -5 253 -11 280 -14 68 -11 128 12
266 22 125 34 169 52 180 10 7 18 42 21 104 1 21 -3 30 -13 30 -41 0 -111
-272 -135 -520 -14 -145 -62 -363 -134 -615 -17 -58 -31 -119 -31 -137 0 -18
-7 -48 -16 -66 -16 -34 -16 -35 27 -115 24 -44 72 -110 107 -147 72 -78 69
-58 52 -330 -13 -213 -39 -416 -56 -436 -8 -9 -11 -19 -7 -23 4 -4 -5 -2 -20
3 -44 17 -107 64 -162 121 -27 28 -97 90 -155 137 -58 48 -127 108 -155 134
-81 77 -222 177 -314 221 -47 23 -89 44 -93 46 -5 2 -8 -3 -8 -12 0 -31 -22
-26 -82 18 -67 50 -94 58 -85 26 5 -18 2 -19 -36 -14 -23 4 -49 13 -58 20 -12
11 -58 14 -195 14 -134 0 -199 4 -256 17 -43 10 -78 20 -78 23 0 3 19 14 41
24 37 17 48 18 110 7 37 -7 108 -12 156 -10 48 1 100 -1 116 -5 21 -7 27 -5
27 8 0 26 -29 33 -172 45 -131 10 -197 26 -212 50 -12 19 68 13 118 -10 36
-15 57 -19 88 -14 22 4 83 1 134 -6 93 -12 118 -9 96 13 -13 13 -165 37 -239
38 -71 0 -75 16 -6 23 109 11 284 -24 308 -63 3 -5 10 -10 16 -10 16 0 10 33
-12 56 l-21 23 33 9 c19 4 35 15 37 24 3 13 -18 16 -135 22 -91 5 -148 4 -166
-3 -16 -6 -57 -11 -91 -11 -50 0 -67 -4 -81 -20 -11 -13 -31 -20 -53 -20 -27
0 -43 -9 -74 -41 -28 -28 -37 -44 -30 -51 7 -7 16 -6 27 5 15 15 45 13 45 -2
0 -4 -17 -17 -39 -29 -53 -30 -65 -46 -52 -70 7 -13 26 -21 60 -26 27 -4 66
-13 86 -22 29 -12 62 -13 172 -8 125 7 139 6 177 -14 41 -21 162 -52 202 -52
12 0 33 -9 47 -20 14 -11 30 -20 36 -20 7 0 29 -9 51 -20 22 -11 51 -20 65
-20 14 0 38 -8 53 -17 39 -26 178 -138 242 -196 30 -28 100 -85 155 -127 55
-43 128 -103 163 -134 64 -57 108 -84 175 -105 20 -7 42 -21 47 -31 6 -10 10
-79 10 -152 0 -73 6 -176 12 -228 6 -52 12 -129 12 -170 1 -41 7 -85 14 -97 8
-14 9 -24 2 -28 -5 -3 -10 -21 -10 -38 0 -18 -6 -41 -14 -52 -7 -11 -17 -34
-20 -52 -4 -17 -14 -37 -21 -43 -16 -13 -5 -45 23 -66 13 -9 14 -28 9 -108 -4
-53 -11 -124 -17 -159 -5 -34 -21 -150 -35 -257 -15 -107 -44 -323 -65 -480
-49 -352 -49 -355 -60 -625 -6 -152 -16 -268 -34 -375 -14 -86 -29 -238 -35
-340 -8 -154 -15 -211 -45 -340 -20 -85 -36 -180 -36 -210 0 -60 32 -205 54
-248 8 -16 25 -59 37 -97 12 -38 35 -87 51 -109 15 -21 28 -42 28 -46 0 -4
-39 -10 -87 -12 -80 -4 -96 -9 -179 -51 -50 -25 -131 -59 -179 -76 -101 -34
-141 -67 -150 -121 -21 -122 128 -204 370 -203 85 0 108 4 157 26 61 27 166
95 187 121 11 13 34 16 111 16 87 0 101 3 133 25 l37 24 42 -24 c57 -33 139
-34 204 -3 34 16 51 19 63 11 25 -16 19 -32 -25 -66 -84 -65 -229 -201 -246
-231 -27 -46 -23 -114 7 -159 40 -59 91 -79 199 -79 105 0 160 17 325 102 130
67 186 110 201 155 l12 35 79 0 c88 0 146 22 224 85 53 42 83 58 101 51 8 -3
21 -3 29 1 14 5 14 8 0 29 -14 22 -13 24 31 54 69 48 159 143 184 195 18 37
24 73 30 168 4 67 22 230 39 362 26 196 33 297 41 550 8 283 11 324 39 470 17
88 46 293 63 455 30 276 32 319 32 667 1 325 3 373 16 373 13 0 44 69 35 78
-9 10 -25 -12 -25 -34 0 -13 -4 -24 -9 -24 -20 0 -21 41 -6 161 8 69 15 202
15 303 0 99 5 217 12 262 10 74 9 95 -10 201 -31 171 -42 297 -31 373 24 176
39 330 49 485 6 104 15 172 22 176 6 4 8 14 5 22 -7 18 4 22 76 33 28 4 60 16
75 29 25 22 25 23 23 156 -1 74 -9 179 -17 234 -12 76 -15 171 -13 396 l3 297
-52 106 c-73 151 -119 214 -262 361 -150 154 -360 415 -360 448 0 17 -122 127
-164 147 -37 18 -43 47 -20 92 10 18 18 51 19 73 3 55 13 83 31 87 17 3 137
245 126 252 -4 2 -23 -23 -42 -55 -19 -33 -36 -55 -39 -48 -2 7 -14 -5 -26
-25 -19 -32 -23 -34 -28 -17 -3 12 11 44 40 88 80 121 125 218 93 198 -13 -8
-12 3 5 105 11 69 12 121 3 280 -8 139 -15 198 -24 205 -7 5 -21 33 -31 60
-16 42 -23 50 -43 50 -21 0 -25 -4 -23 -28 1 -16 16 -59 33 -95 33 -70 50
-160 49 -257 0 -60 -1 -59 -33 71 -18 71 -38 139 -43 150 -6 10 -14 44 -17 75
-20 162 -19 163 61 147 44 -9 65 -7 131 11 73 20 104 21 443 22 200 0 387 4
414 9 28 5 149 12 270 16 121 3 269 12 328 20 59 8 187 14 285 14 97 0 244 7
326 16 133 14 187 15 480 4 182 -7 446 -15 586 -17 240 -4 265 -3 412 21 181
30 204 37 338 107 102 52 156 98 249 208 29 35 61 60 95 75 60 27 100 70 151
161 89 159 139 330 128 442 -3 34 -9 61 -13 58 -4 -2 3 40 15 94 12 54 28 143
34 197 40 351 63 600 76 814 15 258 49 537 85 705 49 220 52 252 59 635 6 268
13 409 26 493 15 108 16 162 6 645 -6 290 -16 559 -22 597 -49 305 -66 358
-128 403 -105 78 -161 127 -189 167 -48 68 -64 75 -198 81 -66 3 -141 12 -169
19 -27 8 -84 19 -125 25 -41 7 -106 20 -145 31 -198 53 -456 101 -585 108 -98
6 -159 16 -220 34 -106 33 -606 103 -826 117 -87 6 -198 15 -246 20 -48 6
-196 15 -330 20 -134 6 -281 15 -328 21 -47 6 -316 13 -598 16 -524 5 -713 -1
-944 -33 -62 -8 -239 -19 -393 -24 -174 -6 -339 -17 -434 -29 -85 -12 -267
-28 -405 -36 -138 -8 -267 -17 -286 -20 -19 -2 -93 -13 -165 -24 -71 -11 -195
-25 -275 -31 -80 -6 -190 -17 -245 -25 -268 -38 -481 -57 -745 -65 -229 -7
-304 -13 -380 -30 -73 -16 -152 -23 -345 -30 -143 -5 -289 -15 -340 -24 -49
-9 -173 -19 -275 -22 -245 -7 -362 -25 -620 -91 -371 -96 -394 -102 -452 -113
-84 -17 -139 -63 -181 -153 -62 -133 -58 -128 -52 -72 2 28 9 149 15 270 20
442 32 654 46 820 27 325 15 739 -26 940 -18 82 -43 100 -255 176 -103 37
-121 41 -270 49 -219 13 -412 35 -520 59 -194 42 -422 54 -1380 71 -374 7
-646 17 -765 27 -149 13 -330 17 -930 18 -410 1 -851 -1 -980 -5z m1805 -96
c101 -10 341 -18 735 -24 640 -9 1162 -25 1310 -41 52 -5 151 -20 220 -33 132
-26 324 -45 530 -53 109 -4 138 -9 230 -40 157 -53 196 -75 204 -115 34 -187
47 -613 26 -858 -20 -230 -40 -609 -40 -756 0 -297 -33 -571 -79 -671 -25 -53
-36 -66 -73 -82 -24 -11 -74 -25 -113 -32 -38 -6 -88 -20 -110 -30 -23 -10
-84 -26 -136 -35 -52 -9 -97 -18 -101 -21 -5 -2 -76 -8 -158 -14 -126 -8 -170
-6 -273 8 -157 22 -337 24 -362 3 -16 -14 -17 -29 -12 -185 4 -93 11 -200 17
-237 5 -36 17 -347 25 -690 24 -932 32 -1164 47 -1258 16 -108 13 -1623 -4
-1709 -15 -77 -28 -47 -28 67 0 51 -7 157 -15 235 -8 78 -24 230 -35 337 -11
107 -27 283 -35 390 -8 107 -17 211 -20 230 -12 82 -27 407 -40 855 -15 508
-29 671 -80 895 -13 58 -28 152 -35 210 -26 245 -31 280 -51 356 -40 152 -158
352 -231 390 -86 45 -115 47 -708 51 -759 6 -1202 -14 -1520 -68 l-185 -31
-355 5 c-220 4 -404 12 -485 21 -269 32 -521 48 -875 55 -276 6 -385 12 -445
24 -44 9 -107 20 -140 25 -102 16 -228 53 -261 78 -97 74 -164 363 -164 704 0
63 -7 169 -15 235 -8 66 -19 217 -25 335 -6 118 -18 287 -26 375 -22 234 -23
531 -1 623 32 138 76 198 188 252 31 15 72 39 91 54 62 46 228 93 414 116 43
6 264 14 489 20 226 5 471 14 545 20 236 20 545 27 1290 28 585 1 754 -2 875
-14z m8460 -7490 c19 -46 19 -53 -1 -28 -15 18 -15 18 -9 -9 5 -24 3 -28 -12
-23 -23 7 -52 -9 -30 -17 9 -3 17 -27 21 -61 8 -63 44 -161 75 -205 12 -16 21
-34 21 -41 0 -25 -27 -1 -68 60 -37 54 -43 69 -37 98 5 28 3 33 -12 30 -12 -2
-19 6 -24 27 l-7 30 -1 -33 c0 -18 -7 -34 -13 -36 -107 -27 -157 -39 -178 -40
-14 -2 -46 -15 -71 -29 -73 -43 -68 -31 9 21 38 26 69 49 67 51 -2 2 -43 -20
-90 -48 -140 -85 -128 -53 17 42 118 79 137 88 169 84 38 -5 99 15 99 33 0 7
-9 5 -22 -4 -12 -9 -33 -16 -46 -16 -32 0 -64 19 -56 32 9 13 14 16 -115 -71
-58 -39 -111 -71 -119 -71 -20 0 24 58 62 81 17 10 25 19 17 19 -10 0 -5 10
13 29 33 34 186 97 213 87 9 -4 14 -4 10 1 -7 7 65 41 90 42 7 1 20 -15 28
-35z m117 -60 c41 -37 79 -82 96 -115 28 -53 120 -192 182 -274 25 -33 31 -52
35 -115 l6 -75 -63 120 c-157 298 -210 386 -224 374 -11 -9 -14 -9 -14 0 0 7
-5 9 -12 5 -6 -4 -8 -3 -5 3 3 5 -21 42 -54 82 -59 73 -78 112 -36 75 12 -11
52 -47 89 -80z m-59 -68 c25 -24 58 -47 74 -50 24 -6 35 -18 53 -56 29 -62 18
-77 -21 -30 -15 19 -29 31 -29 25 0 -13 -73 60 -110 111 -40 57 -23 56 33 0z
m287 -96 c11 -22 16 -40 10 -40 -10 0 -40 52 -40 70 0 19 10 10 30 -30z m-299
-17 c17 -27 40 -54 49 -60 10 -7 30 -36 45 -65 36 -69 128 -212 172 -265 40
-50 78 -62 45 -15 -36 53 -33 64 9 25 71 -67 80 -90 79 -195 -2 -101 -7 -138
-21 -138 -15 0 -153 186 -193 260 -43 81 -43 103 0 37 30 -46 124 -154 124
-143 0 4 -31 52 -69 109 -89 132 -171 276 -171 300 0 10 -13 30 -29 45 -38 36
-97 152 -77 152 3 0 19 -21 37 -47z m-515 -9 c-5 -14 -46 -20 -46 -7 0 4 10
18 23 31 18 20 23 21 25 7 2 -9 1 -23 -2 -31z m319 -24 c3 -5 -1 -10 -9 -10
-9 0 -16 5 -16 10 0 6 4 10 9 10 6 0 13 -4 16 -10z m37 -85 c14 -36 24 -65 22
-65 -6 0 -74 110 -74 120 0 6 6 10 13 10 7 0 25 -29 39 -65z m92 21 c14 -24
37 -52 50 -63 23 -17 50 -93 28 -79 -6 3 -12 -2 -14 -11 -2 -12 -13 1 -30 38
-33 67 -69 159 -64 159 2 0 16 -20 30 -44z m-417 -50 c-42 -42 -79 -76 -82
-76 -4 0 3 17 15 38 19 33 129 126 138 117 2 -2 -30 -38 -71 -79z m613 39 c0
-5 -5 -3 -10 5 -5 8 -10 20 -10 25 0 6 5 3 10 -5 5 -8 10 -19 10 -25z m102
-62 c96 -175 102 -206 16 -86 -85 120 -113 183 -78 183 4 0 32 -44 62 -97z
m-712 82 c0 -2 -10 -9 -22 -15 -22 -11 -22 -10 -4 4 21 17 26 19 26 11z m-63
-11 c-3 -3 -12 -4 -19 -1 -8 3 -5 6 6 6 11 1 17 -2 13 -5z m-17 -54 c-19 -16
-41 -29 -49 -30 -8 0 3 14 24 30 49 39 70 39 25 0z m-60 -48 c0 -13 -69 -76
-75 -70 -4 3 8 22 25 42 31 34 50 45 50 28z m208 -151 c67 -49 65 -64 -6 -54
-36 5 -42 9 -37 24 7 23 -3 24 -29 4 -11 -8 -26 -15 -34 -15 -8 0 -21 -8 -28
-17 -7 -10 -15 -15 -19 -11 -8 8 84 98 100 98 7 0 30 -13 53 -29z m-451 -77
c-3 -3 -12 -4 -19 -1 -8 3 -5 6 6 6 11 1 17 -2 13 -5z m163 -39 c-24 -25 -46
-45 -49 -45 -3 0 15 20 39 45 24 25 46 45 49 45 3 0 -15 -20 -39 -45z m-197 7
c16 -7 16 -9 1 -31 -13 -18 -18 -20 -25 -10 -11 17 -12 49 -1 48 4 0 15 -4 25
-7z m1371 -303 c-4 -56 -21 -109 -34 -109 -4 0 -10 10 -14 23 -5 18 -8 19 -15
7 -18 -28 -21 -3 -5 41 9 26 18 88 21 149 2 58 7 112 10 120 9 25 41 -173 37
-231z m-121 -52 c-4 -6 -37 23 -75 64 -100 108 -102 122 -4 28 47 -45 82 -87
79 -92z m-1167 13 c8 0 14 -9 14 -20 0 -11 7 -20 15 -20 17 0 19 -24 9 -107
-4 -29 -11 -53 -15 -53 -5 0 -9 5 -9 12 0 6 -6 19 -14 27 -22 26 -46 111 -45
160 0 45 0 45 16 24 8 -13 22 -23 29 -23z m1321 -59 c-8 -71 -59 -208 -105
-282 l-39 -64 5 -88 c5 -105 -12 -145 -23 -51 -3 33 -8 70 -11 84 -3 18 8 44
37 87 32 49 42 77 50 130 7 57 74 231 88 233 2 0 1 -22 -2 -49z m-207 -39 c0
-5 -13 -21 -30 -37 l-30 -29 0 27 c0 19 7 30 23 37 29 11 37 12 37 2z m-1154
-236 c-9 -66 -26 -84 -26 -27 0 42 17 98 26 88 4 -3 3 -31 0 -61z m1290 -583
c-4 -4 -11 -1 -16 7 -16 25 -11 35 7 17 9 -9 13 -20 9 -24z m34 -102 c12 -23
-3 -37 -17 -18 -22 27 -24 37 -9 37 8 0 20 -9 26 -19z m-815 -269 c-6 -7 -45
9 -45 18 0 4 11 3 24 -3 14 -7 23 -13 21 -15z m-516 -1154 c1 -192 -3 -338 -8
-338 -18 0 -117 119 -145 174 -28 55 -28 59 -14 84 9 15 19 50 23 77 12 96 16
105 36 105 29 0 44 44 71 210 l23 145 6 -60 c4 -33 7 -212 8 -397z m1865 -640
c-6 -89 -48 -420 -89 -710 -13 -97 -24 -205 -23 -240 0 -48 -10 -101 -45 -218
-25 -85 -55 -191 -66 -235 -29 -115 -51 -294 -39 -324 9 -24 9 -24 27 -5 12
12 28 66 45 149 38 185 50 227 66 235 8 4 31 15 52 23 l36 16 7 -61 c8 -68 3
-137 -27 -395 -21 -176 -21 -183 -4 -222 17 -36 18 -64 13 -303 -5 -258 -9
-301 -73 -833 -9 -71 -31 -202 -50 -290 -33 -152 -36 -175 -45 -450 -5 -159
-14 -353 -20 -430 -25 -328 -28 -376 -28 -502 l-1 -132 -32 -22 c-18 -13 -62
-47 -98 -77 -36 -29 -90 -65 -120 -80 -54 -27 -58 -27 -288 -30 -199 -3 -237
-1 -257 12 -17 11 -49 16 -109 16 -141 0 -186 29 -186 119 0 31 -7 83 -15 116
-20 85 -21 385 -1 385 26 0 28 39 16 244 -16 263 -11 1636 6 1657 7 9 13 75
15 174 4 153 3 160 -15 160 -14 0 -22 -10 -27 -30 -22 -87 -40 -414 -49 -855
-5 -267 -12 -504 -15 -526 -8 -59 -8 -1162 0 -1215 l7 -44 -190 0 -189 0 -63
43 c-39 26 -75 42 -93 42 -21 0 -39 10 -62 36 -36 39 -39 47 -78 169 -63 200
-63 242 8 550 9 39 22 174 30 300 8 127 21 268 30 315 9 50 20 190 25 340 9
241 23 393 55 610 15 99 37 275 80 638 14 121 25 268 25 338 l0 126 31 -7 c18
-4 50 -16 73 -26 22 -10 64 -19 91 -19 28 0 72 -7 99 -15 59 -18 218 -20 249
-3 12 6 72 15 132 20 61 4 157 13 215 19 143 16 403 18 421 2 14 -11 14 -16
-4 -279 -1 -17 -7 -37 -14 -45 -6 -8 -14 -41 -18 -74 -4 -33 -14 -77 -21 -99
-20 -55 -17 -99 6 -129 21 -26 20 -70 -1 -83 -12 -7 -12 -44 0 -44 5 0 11 -21
15 -47 4 -27 19 -70 34 -98 22 -41 38 -55 90 -82 66 -34 93 -35 84 -1 -5 19
-4 19 26 4 19 -10 36 -29 43 -51 7 -19 18 -35 25 -35 7 0 19 -3 27 -6 9 -3 25
4 36 15 26 26 28 46 4 36 -37 -15 -56 -18 -50 -8 8 13 -54 108 -89 138 -20 17
-24 31 -26 94 -4 106 -24 106 -34 -1 l-8 -83 -6 73 c-6 68 -17 91 -42 92 -12
0 -10 -135 2 -166 22 -56 -20 -39 -46 19 -15 33 -18 59 -15 125 3 77 1 86 -24
122 -20 28 -26 47 -22 67 11 55 25 101 41 133 9 20 16 58 16 95 0 34 5 66 12
73 7 7 19 91 29 215 9 111 24 227 33 257 22 72 43 217 51 355 4 61 13 122 21
137 18 34 18 49 0 42 -27 -11 -31 77 -19 444 6 211 14 233 38 113 12 -60 27
-74 45 -42 8 17 8 20 -4 15 -11 -4 -16 4 -21 33 -5 37 -14 68 -30 106 -6 14
-1 17 33 17 22 0 80 14 129 31 102 37 137 47 175 48 l27 1 -5 -82z m-24 -903
c0 -3 7 -41 16 -83 18 -88 14 -172 -11 -226 -17 -35 -80 -84 -92 -72 -4 3 9
68 27 144 18 75 35 161 38 190 2 28 8 52 13 52 5 0 9 -2 9 -5z m-1881 -4041
c36 -30 108 -54 160 -54 20 0 88 12 151 26 63 14 127 28 142 31 26 5 26 5 30
-63 2 -38 7 -76 12 -85 6 -13 -2 -19 -38 -28 -25 -6 -64 -11 -88 -11 l-43 0
25 20 25 20 -60 1 c-85 3 -116 -1 -147 -17 -15 -8 -55 -14 -90 -14 -105 0
-172 -16 -274 -67 -85 -42 -107 -48 -172 -52 -133 -6 -289 31 -305 74 -12 29
5 44 76 71 40 15 125 54 191 86 104 51 126 58 180 59 33 0 81 6 106 13 68 20
86 18 119 -10z m777 -264 c38 -5 134 -10 214 -11 80 -1 185 -4 235 -8 l89 -6
-41 -33 c-60 -47 -121 -72 -179 -72 -80 0 -108 -9 -125 -38 -11 -20 -53 -44
-155 -91 -205 -95 -253 -111 -335 -111 -43 0 -81 6 -99 15 -33 17 -48 56 -34
90 13 30 235 240 281 264 21 11 48 18 59 16 12 -3 52 -9 90 -15z"/>
<path d="M824 17331 c-117 -82 -183 -172 -184 -250 0 -56 60 -104 168 -137
191 -57 197 -59 200 -76 4 -22 -70 -103 -127 -140 -51 -32 -68 -35 -73 -13 -5
24 -48 -10 -48 -39 0 -32 19 -46 60 -46 115 0 297 170 275 258 -15 59 -48 76
-267 137 -32 8 -69 25 -83 38 l-27 22 17 43 c21 52 161 187 205 197 36 8 46
21 30 40 -24 29 -73 17 -146 -34z"/>
<path d="M6141 17206 c-9 -10 -10 -55 -5 -159 5 -100 4 -146 -4 -151 -17 -10
-77 49 -96 96 -35 84 -51 98 -62 53 -7 -29 15 -96 49 -146 48 -70 122 -97 167
-61 25 20 25 22 25 185 0 124 -3 168 -14 180 -16 21 -45 22 -60 3z"/>
<path d="M4530 17191 c-5 -11 -10 -27 -10 -36 0 -8 -11 -37 -24 -64 -77 -150
-151 -149 -187 3 -13 56 -26 71 -47 54 -29 -24 10 -171 57 -212 27 -25 100
-26 136 -2 14 9 38 35 53 56 15 22 29 39 32 39 3 0 19 -21 35 -47 17 -25 45
-55 63 -65 28 -16 37 -17 62 -7 l30 12 -50 55 c-49 54 -80 124 -80 183 0 48
-49 69 -70 31z"/>
<path d="M5298 17173 c-44 -47 -60 -92 -66 -179 -4 -73 -3 -83 17 -103 11 -11
33 -21 47 -21 30 0 74 43 94 90 16 38 24 38 50 -5 38 -61 75 -85 133 -85 l52
0 -57 53 c-31 28 -69 71 -84 95 -48 75 -103 68 -151 -19 l-28 -53 -3 45 c-3
51 24 136 49 152 25 16 68 0 79 -29 12 -30 30 -23 30 12 0 70 -111 102 -162
47z"/>
<path d="M6387 17180 c-34 -27 -57 -98 -63 -195 -5 -69 -3 -84 15 -112 23 -37
70 -54 116 -42 18 5 52 32 82 66 l51 58 7 -30 c22 -96 51 -139 83 -119 24 15
26 56 7 114 -31 92 7 183 90 214 46 18 47 19 28 38 -29 29 -82 33 -120 9 -39
-25 -83 -98 -90 -151 -5 -36 -13 -45 -70 -86 -45 -32 -71 -44 -91 -42 -26 3
-27 6 -30 66 l-3 62 35 0 c69 0 114 102 66 150 -26 26 -80 26 -113 0z m78 -50
c9 -15 -22 -60 -40 -60 -19 0 -19 20 1 48 17 24 29 28 39 12z"/>
<path d="M7060 17174 c-6 -14 -10 -38 -10 -53 0 -33 -54 -121 -75 -121 -17 0
-73 73 -81 107 -8 32 -24 29 -24 -4 0 -39 43 -127 71 -147 38 -26 64 -20 102
24 33 39 35 40 42 18 3 -13 9 -84 12 -158 6 -149 0 -177 -53 -239 -36 -44 -96
-71 -158 -71 -55 0 -102 24 -139 72 l-24 30 5 -33 5 -33 -31 26 c-17 14 -62
38 -101 53 -83 33 -143 31 -177 -7 -11 -13 -29 -28 -40 -34 -10 -6 -24 -26
-31 -45 -14 -40 -17 -178 -4 -198 12 -19 42 -6 35 14 -4 9 0 23 8 33 9 9 18
41 21 69 7 65 49 123 88 123 14 0 54 -14 89 -31 56 -28 65 -38 87 -85 13 -30
23 -62 21 -71 -2 -12 -27 -25 -83 -41 -121 -36 -125 -38 -125 -69 1 -16 7 -39
15 -53 8 -14 14 -52 15 -86 0 -73 22 -111 58 -100 12 4 25 18 28 32 7 28 0
141 -10 165 -5 12 9 20 69 39 42 13 88 35 102 48 23 21 25 28 19 74 -6 46 -6
50 11 42 36 -16 164 -16 207 0 50 19 115 84 148 146 37 72 38 231 3 408 -15
76 -31 147 -36 160 -12 31 -47 29 -59 -4z"/>
<path d="M3723 17145 c-15 -11 -18 -25 -16 -87 3 -93 -10 -128 -47 -128 -39 0
-77 34 -91 81 -16 52 -39 52 -39 -1 0 -49 32 -103 76 -126 30 -16 89 -16 125
0 13 6 22 -13 48 -99 37 -120 49 -230 32 -292 -14 -51 -78 -123 -110 -123 -32
0 -60 71 -73 183 -9 78 -8 98 6 130 20 48 3 39 -28 -16 -42 -74 -42 -234 0
-323 51 -107 196 -68 264 70 32 64 32 66 28 183 -4 109 -8 130 -56 275 -29 87
-52 176 -52 199 0 67 -30 101 -67 74z"/>
<path d="M2819 17125 c-15 -8 -41 -37 -59 -65 -24 -37 -35 -48 -41 -38 -10 15
-11 10 -15 -52 -1 -25 -5 -86 -9 -137 l-8 -92 37 -37 c36 -36 37 -36 106 -32
59 3 74 8 107 34 21 17 51 53 66 79 17 30 22 43 12 35 -24 -20 -155 -70 -183
-70 -46 0 -62 17 -62 68 0 26 5 64 11 85 9 34 13 37 45 37 106 0 186 118 124
180 -24 24 -92 27 -131 5z m79 -71 c-4 -23 -52 -57 -73 -52 -16 3 -15 7 9 36
30 34 70 44 64 16z"/>
<path d="M4010 17118 c-67 -46 -75 -67 -75 -192 0 -144 8 -156 100 -156 49 0
74 6 116 28 70 37 99 79 99 146 0 78 -16 120 -60 160 -35 32 -46 36 -94 36
-39 0 -62 -6 -86 -22z m126 -71 c21 -18 28 -35 32 -75 5 -59 -3 -74 -59 -103
-54 -27 -97 -25 -103 4 -14 70 -14 98 4 131 18 36 18 36 -4 36 -21 1 -21 1 -2
15 31 23 100 19 132 -8z"/>
<path d="M2084 17100 c-49 -19 -136 -179 -155 -283 -11 -58 -10 -69 5 -92 47
-71 163 -56 215 29 l22 35 30 -34 c35 -39 86 -54 125 -36 31 14 25 25 -26 51
-33 17 -42 30 -61 80 -25 68 -38 83 -71 78 -17 -2 -27 -16 -41 -53 -28 -75
-63 -117 -95 -113 -25 3 -27 6 -24 42 6 76 80 228 119 243 11 4 25 -4 44 -27
l28 -33 7 27 c8 32 -16 73 -52 86 -30 12 -42 12 -70 0z"/>
<path d="M2494 17051 c-23 -10 -45 -25 -50 -32 -8 -13 -23 -127 -27 -209 0
-20 5 -50 12 -68 11 -27 19 -32 40 -30 23 3 27 9 33 53 3 28 7 85 7 127 l1 77
57 37 c53 34 56 37 38 50 -26 19 -62 17 -111 -5z"/>
<path d="M1297 17001 c-57 -12 -86 -39 -139 -131 -42 -74 -48 -91 -48 -142 0
-50 3 -60 25 -74 72 -47 275 62 306 164 15 52 4 125 -24 157 -25 28 -65 37
-120 26z m65 -84 c14 -22 8 -79 -11 -106 -21 -29 -127 -91 -155 -91 -26 0 -19
42 19 124 27 55 43 77 63 85 31 11 73 5 84 -12z"/>
<path d="M1507 16794 c-4 -4 -7 -22 -7 -39 0 -18 -22 -76 -49 -132 -30 -62
-46 -105 -41 -113 31 -51 145 151 138 244 -3 39 -23 58 -41 40z"/>
<path d="M1210 16234 c-19 -48 -9 -140 51 -469 38 -210 40 -219 62 -223 22 -4
37 35 37 99 0 40 -44 287 -106 597 -6 30 -32 28 -44 -4z"/>
<path d="M5343 16211 c-39 -24 -83 -97 -83 -139 0 -41 19 -57 82 -72 95 -23
146 -61 133 -100 -15 -48 -121 -140 -144 -125 -13 7 -34 -32 -27 -51 7 -19 59
-18 98 2 41 21 116 92 134 125 18 36 18 92 -1 129 -18 35 -103 86 -157 95 -21
4 -38 8 -38 10 0 16 27 58 47 70 26 18 31 60 7 69 -20 8 -14 9 -51 -13z"/>
<path d="M6190 16209 c-62 -25 -135 -138 -166 -259 -30 -117 12 -136 55 -25
42 107 108 205 138 205 21 0 44 -65 60 -170 13 -86 31 -130 54 -130 13 0 29
62 29 115 0 127 -41 238 -96 261 -38 16 -40 16 -74 3z"/>
<path d="M4304 16171 c-79 -34 -124 -216 -124 -500 1 -252 21 -442 51 -472 23
-23 33 -24 55 -2 15 16 16 37 10 230 -7 201 -6 213 11 219 77 23 162 87 204
153 26 40 29 54 29 127 0 70 -4 89 -27 134 -37 69 -89 111 -145 116 -24 2 -53
0 -64 -5z m105 -116 c62 -71 66 -173 9 -232 -36 -39 -106 -93 -120 -93 -4 0
-8 23 -8 51 0 28 -4 59 -10 69 -11 21 9 144 34 203 20 49 53 50 95 2z"/>
<path d="M5206 16163 c-4 -5 -54 -8 -111 -8 l-104 0 -35 -34 c-50 -48 -59 -85
-54 -210 6 -125 27 -188 65 -197 16 -4 30 -1 40 9 14 13 14 26 -1 125 -9 61
-16 125 -16 142 0 41 47 90 87 90 51 0 104 21 141 55 32 30 34 34 16 35 -11 0
-24 -3 -28 -7z"/>
<path d="M5710 16148 c-120 -61 -147 -314 -38 -359 20 -8 44 -8 90 0 120 21
188 99 188 215 0 69 -27 138 -58 155 -36 19 -133 13 -182 -11z m134 -64 c11
-11 16 -34 16 -76 0 -54 -3 -63 -32 -92 -36 -36 -100 -55 -122 -36 -22 17 -26
89 -9 132 29 73 108 112 147 72z"/>
<path d="M1497 16119 c-28 -16 -23 -85 7 -105 14 -8 27 -23 29 -32 2 -10 8 0
15 24 21 74 -7 137 -51 113z"/>
<path d="M2263 16112 c-21 -14 -26 -60 -9 -87 18 -28 72 -35 94 -13 16 16 16
80 0 96 -13 13 -66 16 -85 4z"/>
<path d="M4670 16107 c-59 -30 -110 -161 -110 -283 0 -66 3 -77 28 -104 57
-64 192 -57 227 11 8 15 15 30 15 31 0 2 -31 2 -69 0 -96 -6 -111 4 -111 73 0
52 2 55 24 55 91 0 175 100 146 175 -17 45 -98 68 -150 42z m90 -88 c0 -27
-52 -79 -79 -79 -21 0 -21 1 -6 37 21 50 34 63 61 63 18 0 24 -6 24 -21z"/>
<path d="M3535 16058 c-50 -53 -75 -106 -75 -162 0 -37 40 -72 109 -93 48 -15
56 -22 59 -45 4 -36 -57 -104 -122 -134 -44 -20 -46 -23 -28 -33 35 -18 76
-12 124 18 59 38 90 83 96 140 6 64 -17 90 -104 116 -76 23 -85 36 -64 99 11
35 79 116 97 116 5 0 15 -10 21 -22 10 -21 11 -20 11 15 1 36 0 37 -36 37 -31
0 -44 -8 -88 -52z"/>
<path d="M2626 16029 c-20 -23 -26 -41 -25 -68 1 -20 -5 -50 -14 -67 -41 -80
-45 -210 -7 -256 24 -30 88 -30 146 0 55 28 122 105 130 149 11 61 -2 150 -30
197 -33 57 -64 76 -125 76 -43 0 -53 -4 -75 -31z m116 -46 c30 -26 48 -79 48
-142 0 -56 -3 -64 -36 -101 -41 -45 -106 -72 -127 -51 -7 7 -12 41 -12 89 1
60 7 91 27 140 16 39 21 58 12 51 -8 -7 -18 -9 -22 -5 -4 4 4 16 17 27 25 21
63 17 93 -8z"/>
<path d="M661 16025 c-19 -17 -37 -48 -52 -92 -19 -58 -21 -81 -17 -202 5
-154 14 -184 56 -179 l27 3 0 170 c0 209 9 241 83 271 l47 20 -32 17 c-45 24
-76 21 -112 -8z"/>
<path d="M3206 16028 c-7 -13 -22 -59 -31 -102 -20 -91 -49 -166 -65 -166 -45
0 -74 57 -75 143 0 52 -2 57 -20 55 -17 -3 -20 -12 -23 -68 -4 -83 10 -132 49
-164 64 -54 133 -24 159 69 13 46 30 60 30 25 0 -58 61 -140 104 -140 38 0 39
14 5 69 -26 42 -33 67 -44 160 -7 61 -18 118 -25 126 -18 22 -47 18 -64 -7z"/>
<path d="M1781 15995 c-37 -42 -61 -119 -61 -195 0 -47 4 -62 25 -84 56 -60
138 -62 201 -5 l21 19 22 -97 c29 -127 38 -248 21 -298 -22 -67 -107 -145
-159 -145 -21 0 -43 54 -57 140 l-7 45 -14 -80 c-24 -137 -1 -189 84 -189 113
0 227 118 247 255 10 68 -10 219 -49 362 -19 70 -35 146 -35 168 0 53 -15 79
-45 79 -13 0 -37 13 -53 30 -45 44 -99 42 -141 -5z m112 -47 c36 -33 50 -103
30 -146 -24 -50 -55 -67 -90 -50 -23 11 -29 21 -31 53 -5 53 4 93 28 133 23
38 31 39 63 10z"/>
<path d="M912 15976 c-58 -66 -96 -219 -72 -290 6 -19 27 -49 45 -65 61 -53
139 -53 201 1 33 30 70 85 61 94 -2 2 -31 -10 -65 -26 -75 -36 -111 -38 -139
-7 -28 31 -34 52 -27 97 6 36 8 38 51 43 83 9 125 65 102 135 -13 39 -35 52
-87 52 -33 0 -45 -6 -70 -34z m98 -61 c0 -17 -9 -29 -30 -40 -46 -24 -52 -18
-30 25 24 47 60 56 60 15z"/>
<path d="M6504 15885 c-7 -19 -14 -43 -14 -53 0 -47 66 -58 99 -16 26 33 27
54 2 61 -11 3 -21 13 -24 24 -9 33 -46 24 -63 -16z"/>
<path d="M2286 15874 c-11 -28 -6 -158 7 -184 15 -29 48 -37 67 -16 10 13 10
26 1 60 -6 25 -11 63 -11 85 0 54 -8 71 -35 71 -13 0 -26 -7 -29 -16z"/>
<path d="M1533 15850 c-3 -13 -14 -20 -29 -20 -25 0 -29 -10 -25 -61 3 -44 57
-164 75 -167 38 -8 44 13 39 126 -3 59 -10 115 -15 125 -12 23 -39 22 -45 -3z"/>
<path d="M13460 4445 c-8 -10 -11 -36 -8 -75 4 -49 9 -65 34 -91 29 -30 29
-31 26 -139 -2 -70 1 -111 8 -115 19 -12 61 -118 67 -167 6 -46 5 -48 -19 -48
-21 0 -31 10 -53 55 -14 30 -36 60 -48 67 -30 15 -37 29 -26 49 14 27 11 79
-5 79 -17 0 -33 -80 -28 -142 3 -34 9 -49 22 -53 10 -3 20 -15 23 -27 5 -18 8
-19 21 -8 14 11 17 8 22 -20 7 -34 34 -50 83 -50 43 0 56 24 53 92 -2 61 -46
169 -78 193 -14 10 -15 21 -8 71 11 81 7 108 -27 191 -16 39 -29 87 -29 107 0
40 -12 53 -30 31z"/>
<path d="M13195 4150 c-3 -5 -1 -10 4 -10 6 0 11 5 11 10 0 6 -2 10 -4 10 -3
0 -8 -4 -11 -10z"/>
<path d="M14174 15625 c-7 -18 23 -450 37 -548 12 -75 36 -114 64 -103 15 5
17 14 12 59 -4 28 -11 113 -17 187 -12 144 -42 348 -59 393 -12 30 -28 35 -37
12z"/>
<path d="M14496 15614 c-3 -9 -6 -28 -6 -42 0 -21 2 -24 10 -12 5 8 10 13 11
10 1 -3 5 -125 8 -271 6 -229 9 -269 24 -292 18 -28 52 -36 59 -14 5 13 -6
247 -21 447 -12 150 -23 190 -56 190 -13 0 -26 -7 -29 -16z"/>
<path d="M15886 15593 c-2 -2 -43 -8 -92 -13 -120 -13 -181 -29 -188 -47 -8
-20 -1 -30 37 -50 30 -15 31 -15 18 1 -8 9 -11 19 -8 22 3 3 55 8 116 11 l111
6 0 -139 c0 -191 16 -363 36 -385 14 -16 9 -19 -80 -39 -53 -12 -107 -20 -121
-18 -29 6 -50 -14 -41 -38 6 -14 19 -16 104 -11 105 6 389 67 424 91 19 14 18
15 -21 27 -38 11 -118 5 -206 -17 -20 -5 -20 1 -22 266 l-2 270 115 0 c64 0
124 -5 135 -11 19 -9 20 -8 17 18 -2 18 -12 32 -28 39 -22 10 -296 25 -304 17z"/>
<path d="M11192 15548 c-7 -7 -12 -32 -12 -57 0 -72 37 -295 71 -427 29 -115
30 -123 15 -153 -26 -50 -32 -145 -11 -177 16 -24 21 -26 70 -22 37 3 70 15
107 37 96 58 228 162 253 199 48 70 26 155 -51 203 -33 20 -51 24 -119 23 -92
-1 -134 -18 -162 -64 -9 -16 -20 -30 -24 -30 -10 0 -55 217 -78 383 -12 86
-31 113 -59 85z m399 -471 c44 -29 47 -56 12 -97 -48 -57 -254 -200 -288 -200
-3 0 -5 22 -5 49 0 37 6 56 24 78 12 15 31 51 40 78 30 93 55 113 137 114 32
1 56 -6 80 -22z"/>
<path d="M8050 15465 c-30 -9 -75 -29 -101 -45 -25 -17 -51 -30 -56 -30 -18 0
-71 -67 -102 -128 -119 -238 -129 -479 -24 -562 25 -20 37 -22 113 -18 102 5
148 26 228 101 61 59 161 202 187 269 26 70 19 256 -14 321 -44 91 -122 122
-231 92z m137 -77 c46 -51 57 -88 58 -193 0 -110 -7 -129 -86 -246 -80 -118
-171 -188 -266 -203 -95 -14 -128 31 -127 174 1 79 7 111 33 190 17 52 40 107
51 122 11 15 20 32 20 37 0 20 52 70 103 99 63 35 76 39 143 41 41 1 55 -3 71
-21z"/>
<path d="M8802 15449 c-28 -18 -62 -64 -62 -84 0 -4 14 3 31 15 16 12 32 20
34 18 2 -2 -34 -48 -81 -103 -103 -121 -131 -174 -114 -216 7 -16 52 -60 104
-101 50 -40 119 -99 154 -131 69 -64 105 -73 110 -27 4 36 -74 120 -197 210
-55 41 -101 82 -101 90 0 9 41 65 90 126 104 125 134 178 119 206 -13 24 -46
23 -87 -3z"/>
<path d="M8484 15434 c-11 -43 4 -325 26 -489 11 -82 20 -153 20 -157 0 -5 9
-8 20 -8 13 0 24 10 31 27 10 27 6 76 -25 318 -9 66 -20 167 -24 225 -6 87
-10 105 -24 108 -12 2 -19 -5 -24 -24z"/>
<path d="M13205 15297 c-93 -98 -127 -163 -132 -250 -4 -63 -2 -76 19 -106 33
-49 78 -73 152 -78 53 -5 72 -2 117 19 65 30 114 70 135 110 9 17 12 28 7 25
-4 -2 -47 -23 -95 -46 -95 -45 -152 -52 -213 -27 -43 18 -55 42 -55 108 0 58
29 120 97 209 42 55 70 70 89 45 11 -15 12 -15 18 0 8 21 8 20 -10 38 -32 32
-65 20 -129 -47z"/>
<path d="M12520 15333 c-22 -8 -88 -72 -121 -117 -37 -49 -39 -103 -6 -133 12
-12 47 -31 77 -44 65 -26 80 -37 80 -54 0 -7 -29 -48 -65 -91 -65 -78 -65 -79
-39 -82 19 -3 42 9 82 40 75 58 97 90 97 139 0 51 -29 78 -115 110 -33 12 -65
27 -70 35 -15 17 9 62 62 120 42 45 68 56 68 28 0 -8 5 -12 10 -9 6 3 10 17
10 30 0 30 -30 42 -70 28z"/>
<path d="M12832 15328 c-21 -21 -13 -46 20 -62 17 -9 32 -16 33 -16 2 0 8 14
16 31 11 28 10 33 -6 45 -23 17 -47 18 -63 2z"/>
<path d="M13677 15311 c-61 -40 -133 -171 -144 -261 -5 -43 -3 -51 20 -74 20
-20 36 -26 70 -26 52 0 97 29 169 109 l47 52 11 -41 c15 -56 74 -120 110 -120
35 0 45 23 20 45 -26 23 -55 89 -69 154 -14 65 -25 81 -57 81 -21 0 -23 4 -18
24 4 19 -1 32 -20 50 -31 32 -97 35 -139 7z m111 -53 c23 -23 14 -74 -23 -117
-48 -59 -113 -111 -137 -111 -18 0 -20 4 -14 32 10 52 55 141 89 176 32 33 64
41 85 20z"/>
<path d="M9935 15238 c-115 -113 -100 -155 62 -170 142 -13 173 -29 154 -81
-13 -34 -85 -104 -153 -148 -34 -21 -65 -39 -70 -39 -11 0 -10 37 2 61 18 32
3 21 -20 -16 -12 -20 -20 -46 -18 -62 4 -40 53 -43 125 -7 76 37 190 145 204
195 16 53 2 98 -40 126 -36 25 -57 29 -173 38 -43 4 -78 11 -78 17 0 5 24 34
53 64 46 47 57 54 95 56 39 2 42 4 26 15 -10 7 -37 13 -61 13 -40 0 -49 -5
-108 -62z"/>
<path d="M15017 15228 c-10 -5 -17 -21 -17 -38 0 -66 -42 -120 -95 -120 -44 0
-84 35 -115 99 -28 60 -45 61 -44 3 1 -46 38 -111 79 -138 39 -25 109 -30 141
-9 14 9 29 14 32 10 4 -4 7 -100 6 -213 -1 -192 -2 -211 -24 -267 -41 -106
-117 -152 -238 -143 -56 4 -112 32 -230 115 -20 14 -18 7 14 -46 68 -114 143
-157 263 -148 101 7 152 29 205 88 61 67 86 144 93 285 5 100 -10 427 -23 496
-6 30 -23 40 -47 26z"/>
<path d="M10385 15209 c-40 -11 -95 -67 -77 -78 10 -6 9 -11 -3 -21 -40 -33
-61 -118 -49 -196 14 -94 77 -118 184 -68 138 63 204 191 152 294 -34 69 -115
96 -207 69z m132 -83 c26 -31 30 -74 8 -115 -33 -65 -159 -141 -186 -114 -23
23 -21 87 6 167 14 44 29 84 32 89 3 5 31 7 61 5 45 -4 60 -10 79 -32z"/>
<path d="M11933 15182 c-57 -9 -134 -149 -137 -249 -1 -66 17 -88 77 -88 53 0
107 40 162 120 21 30 40 55 41 55 2 0 13 -18 24 -40 26 -51 74 -83 114 -75 49
9 74 39 35 42 -34 3 -70 32 -86 71 -41 102 -54 122 -81 122 -14 0 -33 7 -43
16 -20 18 -73 31 -106 26z m83 -86 c8 -32 -8 -61 -69 -123 -76 -78 -95 -67
-61 34 28 84 51 113 90 113 27 0 35 -5 40 -24z"/>
<path d="M12803 15143 c-20 -7 -18 -253 1 -279 12 -15 18 -17 33 -8 13 8 19
26 21 70 7 130 -19 231 -55 217z"/>
<path d="M9106 14868 c-3 -7 -7 -38 -10 -69 -3 -31 -17 -86 -31 -122 l-25 -66
24 10 c44 20 81 133 70 213 -6 44 -20 60 -28 34z"/>
<path d="M17335 14500 c-3 -5 -9 -72 -12 -149 l-6 -139 -41 -5 c-44 -6 -76
-35 -76 -70 0 -20 0 -20 23 1 15 14 36 22 60 22 40 0 40 1 52 -130 9 -102 32
-170 56 -170 30 0 32 19 15 128 -9 55 -16 115 -16 135 0 32 3 35 37 42 32 6
93 31 93 38 0 1 -30 3 -67 5 -37 2 -69 5 -71 7 -2 2 -6 59 -9 127 -2 68 -6
133 -9 146 -5 23 -18 29 -29 12z"/>
<path d="M15221 14471 c-19 -19 -21 -33 -20 -128 0 -60 4 -129 8 -155 7 -45 6
-47 -20 -58 -30 -13 -145 -124 -165 -161 -49 -86 -37 -156 30 -188 90 -44 182
-20 235 62 l24 37 34 -39 c18 -22 48 -49 67 -60 34 -21 86 -28 86 -12 0 5 -27
41 -60 80 -82 98 -93 122 -100 221 -7 83 -34 292 -48 359 -4 18 -17 40 -29 48
-19 13 -24 12 -42 -6z m26 -451 c23 -77 17 -108 -30 -157 -34 -36 -81 -44
-127 -20 -33 17 -36 39 -11 91 25 51 131 171 141 159 4 -4 16 -37 27 -73z"/>
<path d="M14071 14416 c-83 -120 -193 -315 -211 -373 -21 -70 -26 -156 -10
-197 15 -40 82 -108 126 -127 60 -27 140 -33 197 -16 112 35 267 160 282 227
17 78 -51 114 -203 107 -86 -4 -121 -20 -109 -50 4 -12 30 -16 116 -19 142 -4
151 -12 85 -75 -72 -70 -178 -123 -246 -123 -113 0 -188 67 -188 170 0 79 27
149 127 332 75 138 113 187 113 146 0 -9 3 -9 11 -1 19 19 2 43 -30 43 -24 0
-36 -9 -60 -44z"/>
<path d="M16730 14319 c0 -7 5 -29 12 -51 13 -46 28 -33 28 25 0 30 -4 37 -20
37 -11 0 -20 -5 -20 -11z"/>
<path d="M17673 14312 c-32 -5 -73 -47 -73 -76 0 -28 32 -56 118 -102 68 -36
92 -66 92 -115 0 -50 -47 -97 -130 -130 -33 -13 -60 -26 -60 -30 0 -8 48 -29
68 -29 35 0 118 48 155 88 32 37 37 48 37 93 0 86 -43 139 -158 193 -34 16
-62 35 -62 42 0 17 23 33 58 40 18 4 30 10 27 14 -6 10 -44 16 -72 12z"/>
<path d="M17017 14279 c-90 -59 -119 -118 -78 -156 11 -10 65 -36 120 -57 56
-21 106 -45 112 -53 18 -21 1 -47 -63 -96 -31 -25 -54 -47 -51 -51 15 -14 62
-4 104 22 63 41 83 67 83 109 0 52 -49 92 -163 133 -50 18 -94 37 -97 42 -11
17 84 95 124 103 34 6 36 8 17 21 -29 21 -57 17 -108 -17z"/>
<path d="M16554 14219 c-27 -34 -78 -88 -114 -120 l-65 -59 -56 56 c-39 38
-63 55 -73 51 -27 -11 -18 -44 29 -102 27 -33 43 -61 39 -68 -4 -7 -30 -39
-58 -72 -27 -33 -53 -64 -57 -68 -12 -15 -181 43 -211 73 -39 39 -36 58 10 65
146 24 192 51 192 115 0 21 -3 46 -6 55 -10 25 -58 45 -109 45 -40 0 -51 -5
-91 -42 -68 -63 -97 -118 -98 -188 -1 -52 2 -62 29 -91 17 -17 48 -40 70 -50
44 -21 129 -25 171 -9 27 11 36 6 47 -24 2 -5 40 28 84 75 l81 84 54 -37 c29
-21 69 -53 88 -73 43 -44 60 -45 60 -3 0 28 -11 44 -71 100 l-71 68 69 67
c109 108 164 202 122 210 -9 2 -35 -21 -65 -58z m-440 -95 c19 -7 21 -37 4
-52 -18 -14 -128 -42 -128 -32 0 15 53 72 74 80 27 11 31 11 50 4z"/>
<path d="M11503 14248 c-4 -7 -8 -74 -8 -148 l0 -135 -46 -6 c-79 -12 -99 -30
-83 -74 6 -14 8 -13 21 5 11 16 25 20 69 20 l54 0 0 -34 c0 -54 38 -260 56
-305 16 -41 48 -61 66 -43 6 6 4 35 -6 83 -19 90 -48 300 -42 306 6 6 179 40
226 45 34 3 35 2 38 -37 1 -22 9 -89 17 -149 20 -158 51 -176 100 -60 15 35
41 79 56 96 28 29 30 30 48 14 11 -10 29 -54 40 -99 27 -104 45 -143 71 -157
25 -13 25 -14 5 110 -19 119 -30 153 -62 190 -45 54 -117 35 -167 -44 -16 -26
-30 -45 -32 -44 -1 2 -10 68 -19 148 -25 213 -47 314 -70 318 -17 4 -18 -1
-12 -69 4 -41 10 -98 13 -126 l7 -53 -63 0 c-35 0 -92 -5 -127 -11 -35 -6 -67
-9 -70 -6 -2 3 -9 53 -13 111 -9 104 -23 156 -47 163 -6 2 -15 -2 -20 -9z"/>
<path d="M12834 14225 c-4 -9 -4 -72 -1 -140 l6 -122 -74 -6 c-74 -7 -125 -23
-125 -40 0 -5 43 -8 106 -6 l107 4 46 -160 c33 -114 51 -160 61 -160 26 0 24
96 -4 207 -14 54 -26 102 -26 107 0 4 30 13 68 19 37 6 92 20 122 30 l54 19
-65 6 c-36 3 -94 2 -129 -3 -36 -5 -66 -7 -68 -5 -2 2 -14 61 -26 131 -21 121
-37 158 -52 119z"/>
<path d="M8852 14138 c-18 -18 -15 -62 18 -288 41 -272 65 -376 98 -408 24
-25 25 -25 38 -7 19 25 18 38 -10 168 -14 62 -41 200 -61 307 -46 244 -52 259
-83 228z"/>
<path d="M16736 14112 c-10 -16 0 -252 11 -263 23 -23 43 -2 44 48 3 72 -2
186 -7 206 -5 17 -39 24 -48 9z"/>
<path d="M14684 14046 c-51 -22 -116 -116 -129 -187 -9 -50 10 -116 41 -135
57 -38 181 14 250 104 30 40 34 52 34 104 0 55 -3 63 -34 94 -30 30 -40 34
-82 34 -27 -1 -63 -7 -80 -14z m115 -59 c6 -8 13 -27 17 -43 11 -57 -84 -156
-152 -158 -33 -1 -38 2 -46 29 -9 35 21 129 53 164 23 25 109 30 128 8z"/>
<path d="M7711 14040 c-12 -7 -10 -23 7 -92 11 -45 35 -168 52 -271 17 -104
35 -198 39 -210 5 -12 5 -31 0 -42 -23 -58 -2 -141 38 -151 82 -21 266 66 328
155 20 30 25 49 25 99 0 55 -3 65 -31 97 -44 50 -78 65 -148 65 -73 0 -109
-25 -136 -95 -9 -26 -21 -43 -25 -38 -4 4 -16 55 -25 113 -33 203 -75 356
-103 374 -4 2 -14 1 -21 -4z m375 -431 c23 -14 37 -33 45 -59 10 -34 9 -42
-11 -75 -40 -65 -198 -149 -245 -132 -35 14 -10 94 51 166 20 22 28 38 20 35
-9 -3 -16 -3 -16 0 0 13 33 71 44 78 21 15 79 8 112 -13z"/>
<path d="M10259 13994 c-8 -10 -15 -67 -20 -167 -8 -148 -15 -197 -28 -197 -3
0 -23 11 -42 24 -41 28 -103 116 -121 173 -8 21 -21 39 -30 41 -31 6 -23 -74
14 -149 59 -117 166 -192 223 -155 36 23 47 75 52 241 6 181 -8 237 -48 189z"/>
<path d="M10634 13971 c-16 -10 -49 -40 -71 -66 -39 -46 -42 -47 -72 -37 -17
6 -31 7 -31 2 0 -11 25 -37 41 -42 8 -3 8 -15 0 -45 -17 -62 -18 -154 -2 -190
22 -53 73 -78 156 -77 79 0 112 14 165 68 41 40 98 133 64 104 -10 -9 -57 -35
-104 -58 -73 -36 -92 -41 -134 -37 -81 7 -103 59 -75 173 l11 44 75 0 c72 0
75 1 114 38 47 44 62 98 34 125 -24 24 -130 23 -171 -2z m116 -45 c0 -33 -50
-66 -100 -66 -38 0 -38 11 1 44 20 17 43 26 65 26 19 0 34 -2 34 -4z"/>
<path d="M12370 13930 c-33 -46 -69 -143 -76 -203 -6 -47 -4 -57 15 -76 41
-41 99 -19 155 57 57 78 63 81 82 33 17 -43 65 -91 90 -91 9 0 25 5 36 11 20
11 20 11 -3 22 -14 7 -39 41 -59 81 -55 109 -95 109 -180 1 -29 -36 -57 -65
-62 -65 -18 0 -3 82 27 148 23 50 32 62 51 62 14 0 30 -10 40 -25 20 -31 34
-32 34 -1 0 39 -43 76 -89 76 -33 0 -43 -5 -61 -30z"/>
<path d="M9220 13918 c-24 -39 -23 -91 2 -96 11 -2 22 6 29 20 8 19 16 23 39
20 25 -4 30 0 36 23 10 39 -7 59 -49 63 -32 3 -39 -1 -57 -30z"/>
<path d="M9577 13896 c-70 -70 -107 -208 -73 -274 26 -51 65 -65 165 -60 50 3
98 11 115 20 l29 15 -33 12 c-18 6 -54 11 -79 11 -64 0 -119 17 -132 41 -13
26 -2 86 14 70 6 -6 29 -11 50 -11 32 0 46 7 72 34 35 38 51 99 36 139 -11 29
-29 37 -86 37 -37 0 -50 -6 -78 -34z m106 -61 c-3 -39 -46 -78 -76 -69 -30 9
-30 9 -17 36 37 70 97 92 93 33z"/>
<path d="M8482 13754 c-42 -21 -84 -75 -122 -155 -25 -52 -30 -77 -30 -135 0
-65 2 -72 30 -99 27 -26 39 -30 103 -33 63 -3 77 -1 107 20 19 13 45 42 57 64
l22 40 -62 -30 c-66 -32 -125 -38 -165 -17 -18 10 -22 20 -22 59 0 26 4 52 8
59 4 7 38 22 75 33 86 27 126 61 134 115 10 75 -61 116 -135 79z m76 -76 c-3
-28 -10 -36 -58 -60 -30 -15 -59 -28 -63 -28 -14 0 36 81 62 101 13 11 32 19
43 19 16 0 19 -6 16 -32z"/>
<path d="M9210 13716 c-15 -19 -16 -181 -1 -219 14 -36 40 -46 58 -21 12 15
13 40 8 124 -4 58 -11 111 -17 117 -14 17 -33 16 -48 -1z"/>
<path d="M16960 13390 c0 -96 1 -100 19 -91 23 13 41 61 41 113 0 49 -15 78
-40 78 -19 0 -20 -7 -20 -100z"/>
<path d="M17205 13423 c3 -32 2 -103 -2 -157 l-8 -99 -81 -16 c-82 -16 -114
-32 -114 -56 0 -10 9 -11 38 -4 20 5 65 9 100 9 l62 0 0 -109 c0 -123 9 -161
40 -161 11 0 21 1 21 3 1 1 5 65 8 142 l6 139 40 9 c64 14 168 48 193 63 27
18 29 41 3 49 -11 3 -64 -6 -119 -20 -56 -14 -105 -25 -110 -25 -5 0 -12 52
-15 115 -7 120 -20 167 -49 173 -16 3 -17 -3 -13 -55z"/>
<path d="M15314 13405 c-19 -30 -15 -107 15 -242 l18 -83 -26 7 c-14 4 -37 7
-50 6 -31 -1 -110 -80 -164 -162 -35 -54 -42 -73 -45 -128 -4 -56 -2 -67 19
-89 32 -34 88 -48 141 -34 51 14 158 114 188 176 l21 42 40 -43 c43 -46 89
-71 115 -61 22 8 11 36 -51 127 -63 93 -82 145 -96 269 -16 147 -34 213 -63
232 -21 15 -46 8 -62 -17z m34 -367 c15 -15 15 -60 0 -112 -8 -27 -33 -63 -73
-103 -49 -51 -67 -63 -93 -63 -42 0 -56 26 -42 78 10 40 76 149 113 190 23 24
75 30 95 10z"/>
<path d="M16352 13221 c-31 -31 -52 -83 -52 -129 0 -27 42 -71 113 -119 26
-18 47 -39 47 -46 0 -7 -12 -25 -27 -39 -38 -36 -145 -99 -158 -94 -15 6 -36
-30 -29 -49 10 -25 56 -17 134 21 195 98 211 191 48 290 -57 35 -60 38 -54 67
9 45 31 74 63 81 20 6 31 3 40 -10 12 -16 13 -16 19 0 10 26 -18 48 -68 53
-40 5 -48 2 -76 -26z"/>
<path d="M13738 13215 c-12 -27 -3 -176 28 -425 22 -186 24 -194 55 -198 32
-4 40 7 68 88 27 78 79 168 105 182 26 14 39 -2 76 -92 39 -96 56 -120 80
-120 50 0 43 85 -16 207 -25 53 -43 77 -66 89 -63 33 -128 0 -189 -96 -19 -31
-30 -40 -33 -30 -3 8 -15 101 -26 205 -12 105 -23 196 -25 203 -8 22 -45 13
-57 -13z"/>
<path d="M16123 13216 c-71 -60 -154 -261 -139 -340 10 -53 55 -86 117 -86 42
0 55 5 85 33 l35 32 -51 -3 c-88 -7 -122 39 -90 123 9 23 14 26 39 20 42 -9
107 21 131 60 20 33 28 127 12 151 -26 39 -98 44 -139 10z m87 -72 c0 -49 -36
-93 -77 -94 -29 0 -29 2 8 66 34 60 69 74 69 28z"/>
<path d="M16700 13213 c-44 -41 -131 -257 -137 -343 -3 -47 -1 -70 10 -84 24
-33 44 -13 50 51 5 59 92 273 113 280 12 4 29 -65 45 -182 11 -87 28 -117 56
-99 58 36 24 330 -44 383 -35 28 -57 26 -93 -6z"/>
<path d="M13000 13140 c-14 -9 -16 -72 -7 -229 l2 -35 -65 -11 c-72 -12 -90
-20 -90 -40 0 -21 15 -26 45 -15 14 5 50 7 79 4 l53 -6 18 -82 c9 -44 19 -92
20 -106 9 -88 29 -128 59 -117 32 12 28 113 -10 288 -6 25 -4 26 57 33 34 3
87 14 116 23 l54 17 -43 13 c-24 7 -80 13 -125 13 l-81 0 -15 68 c-9 37 -18
90 -22 119 -7 57 -22 77 -45 63z"/>
<path d="M15764 13123 c-29 -6 -45 -26 -77 -99 -36 -83 -37 -151 -1 -193 24
-29 31 -31 87 -31 75 0 132 24 171 71 25 30 28 39 24 94 -7 115 -92 180 -204
158z m101 -104 c51 -61 16 -124 -74 -136 -62 -9 -75 24 -49 122 12 44 13 45
54 45 35 0 47 -5 69 -31z"/>
<path d="M11923 13094 c-3 -9 -3 -61 0 -115 3 -54 3 -99 0 -99 -4 0 -15 8 -25
17 -16 14 -38 17 -128 16 l-108 -1 -13 75 c-13 74 -32 101 -50 72 -5 -8 -6
-48 -3 -89 l7 -76 -79 -18 c-100 -23 -116 -32 -112 -59 3 -25 7 -25 118 -9 41
6 77 9 79 6 3 -3 9 -74 14 -157 11 -210 16 -241 44 -245 34 -5 38 30 24 231
-6 99 -10 181 -8 184 3 2 49 9 103 14 55 6 103 15 108 20 28 26 34 7 38 -129
4 -161 15 -192 71 -192 26 0 43 10 82 51 97 100 162 132 184 91 5 -9 17 -58
26 -109 18 -100 41 -137 73 -116 22 14 20 130 -3 210 -43 149 -147 150 -297 6
l-66 -65 -6 54 c-3 29 -10 127 -16 218 -6 91 -14 180 -17 198 -6 34 -29 44
-40 16z"/>
<path d="M10653 13034 c-3 -9 -3 -62 0 -119 l6 -103 -52 -6 c-88 -12 -121 -48
-75 -80 28 -20 39 -20 32 -1 -5 12 4 15 50 15 53 0 56 -1 62 -27 3 -16 22 -95
42 -178 32 -131 40 -150 57 -150 31 0 31 83 1 211 -35 144 -36 141 22 149 26
4 67 13 92 20 l45 12 -39 17 c-22 9 -66 16 -102 16 -73 0 -64 -13 -88 133 -8
48 -18 92 -21 97 -9 15 -25 12 -32 -6z"/>
<path d="M14350 13008 c-35 -24 -89 -108 -90 -139 0 -9 -11 -20 -25 -23 -30
-8 -32 -22 -5 -36 15 -8 20 -21 20 -54 0 -95 105 -155 229 -130 18 4 30 12 28
18 -1 6 -39 29 -82 51 -87 44 -110 75 -55 75 74 0 143 57 155 130 13 75 -19
116 -98 126 -34 5 -49 1 -77 -18z m108 -86 c5 -33 -48 -82 -88 -82 -28 0 -31
2 -25 23 4 12 16 37 27 55 17 28 25 33 52 30 23 -2 32 -8 34 -26z"/>
<path d="M12549 12839 c-34 -36 -69 -141 -69 -205 0 -58 25 -84 81 -84 37 0
48 7 108 65 37 36 70 65 73 65 2 0 19 -23 37 -50 18 -28 45 -57 61 -65 29 -15
60 -11 60 7 0 18 -82 161 -111 195 -15 17 -30 41 -33 51 -10 29 -66 52 -126
52 -45 0 -56 -4 -81 -31z m158 -47 c9 -5 -11 -31 -63 -82 l-76 -75 6 47 c3 26
12 63 20 83 14 32 18 35 58 35 24 0 49 -4 55 -8z"/>
<path d="M8630 12835 c-13 -15 -11 -54 6 -177 7 -46 6 -47 -30 -62 -30 -12
-37 -20 -34 -38 3 -20 9 -23 46 -23 l44 0 24 -80 c27 -92 67 -192 82 -207 14
-14 42 7 42 32 0 10 -13 61 -29 113 -17 53 -33 111 -36 130 -7 34 -6 34 33 40
80 13 170 48 238 92 l69 45 -45 -6 c-25 -3 -102 -19 -173 -36 -70 -16 -133
-28 -140 -25 -8 3 -22 45 -32 94 -25 122 -37 142 -65 108z"/>
<path d="M9494 12836 c-8 -22 12 -69 42 -97 l24 -22 -1 39 c-2 62 -12 89 -37
92 -13 2 -25 -3 -28 -12z"/>
<path d="M10301 12825 c-11 -14 -22 -39 -26 -55 -13 -58 28 -90 130 -105 87
-12 115 -48 84 -108 -15 -30 -111 -127 -119 -122 -4 3 -20 -7 -34 -20 -45 -42
-22 -76 40 -61 13 4 58 38 99 77 83 79 112 134 102 195 -11 66 -57 98 -162
113 -37 6 -69 12 -72 15 -3 3 -2 17 1 31 5 18 12 25 21 21 20 -7 29 12 15 29
-19 23 -56 18 -79 -10z"/>
<path d="M7750 12805 c-36 -43 31 -500 86 -584 38 -57 43 -61 82 -61 105 2
221 95 241 194 l7 31 19 -39 c27 -55 66 -81 120 -81 49 0 82 24 118 87 23 43
33 47 42 18 10 -31 63 -70 96 -70 42 0 47 24 11 58 -21 20 -37 50 -52 103 -12
41 -25 81 -29 89 -19 36 -71 17 -71 -26 0 -35 -35 -120 -65 -160 -19 -24 -34
-34 -54 -34 -45 0 -91 64 -91 126 0 31 -28 32 -39 2 -8 -22 -9 -22 -24 9 -27
52 -63 73 -123 73 -74 0 -129 -24 -156 -69 l-23 -36 -11 65 c-7 36 -19 118
-27 182 -19 143 -27 160 -57 123z m313 -360 c24 -24 30 -70 13 -103 -30 -58
-135 -126 -166 -107 -15 9 -12 86 4 117 9 17 11 28 4 30 -13 5 16 64 34 71 28
12 97 6 111 -8z"/>
<path d="M9996 12694 c-3 -9 -6 -28 -6 -42 -1 -39 -35 -108 -63 -126 -53 -36
-122 9 -115 76 2 25 -1 33 -16 36 -24 5 -36 -14 -36 -61 0 -76 55 -127 139
-127 35 0 49 7 83 39 l42 38 32 -33 c35 -38 75 -44 113 -18 l23 16 -39 18
c-38 17 -52 37 -67 95 -27 108 -25 105 -55 105 -17 0 -31 -7 -35 -16z"/>
<path d="M9604 12383 l1 -128 -37 -70 c-42 -83 -121 -175 -149 -175 -25 0 -35
-26 -19 -45 18 -22 62 -18 98 8 48 36 91 94 131 177 34 70 36 81 36 170 0 68
-5 109 -18 143 -32 83 -44 62 -43 -80z"/>
<path d="M15297 12403 c-12 -11 -8 -36 9 -54 26 -29 32 -135 23 -367 -10 -223
-6 -252 31 -252 40 0 45 32 45 300 0 224 -2 261 -18 303 -23 58 -67 93 -90 70z"/>
<path d="M17555 12364 c-48 -25 -86 -65 -111 -119 -20 -43 -24 -64 -23 -150 2
-131 8 -159 37 -163 22 -3 22 -1 22 100 0 57 5 120 10 140 16 57 68 118 134
156 43 25 55 37 45 43 -22 14 -81 10 -114 -7z"/>
<path d="M16430 12284 c-55 -30 -70 -49 -70 -85 0 -22 10 -35 48 -60 144 -97
146 -152 9 -247 -41 -28 -77 -59 -81 -68 -18 -46 41 -45 120 2 113 67 152 125
139 203 -10 58 -38 97 -102 138 -32 20 -60 39 -63 41 -3 2 10 17 29 32 22 19
50 31 82 35 76 11 59 35 -24 35 -26 0 -59 -10 -87 -26z"/>
<path d="M17160 12254 c-22 -20 -40 -45 -40 -55 0 -17 5 -16 42 11 42 31 89
39 118 20 11 -7 7 -10 -19 -10 -113 0 -241 -147 -241 -278 0 -44 5 -57 26 -79
23 -23 31 -25 80 -20 102 11 198 78 242 169 41 84 21 220 -39 262 -15 10 -44
16 -76 16 -47 0 -58 -4 -93 -36z m150 -70 c34 -88 -18 -198 -117 -248 -41 -20
-92 -21 -99 -1 -20 52 58 187 140 241 28 18 54 33 59 33 4 1 12 -11 17 -25z"/>
<path d="M16061 12189 c-77 -78 -106 -193 -61 -234 32 -29 112 -32 156 -6 20
12 38 20 40 18 2 -1 6 -57 9 -122 6 -113 5 -123 -17 -164 -18 -35 -36 -52 -83
-77 -33 -18 -71 -34 -85 -36 -21 -3 -25 1 -28 28 -2 17 4 51 12 75 l15 44 -25
-30 c-58 -70 -76 -154 -39 -181 47 -34 178 -2 254 62 68 59 81 95 81 225 0
155 -26 339 -51 361 -10 9 -19 23 -19 31 0 26 -35 47 -78 47 -36 0 -48 -6 -81
-41z m124 -66 c-4 -31 -12 -64 -18 -74 -24 -38 -96 -56 -113 -28 -8 13 34 101
63 132 15 15 38 27 51 27 24 0 24 -1 17 -57z"/>
<path d="M15684 12182 c-28 -18 -94 -110 -94 -132 0 -5 -8 -15 -17 -22 -15
-10 -19 -31 -21 -103 -3 -119 18 -145 116 -145 51 0 63 6 112 63 l25 28 -28
-10 c-31 -12 -106 -15 -131 -5 -18 7 -21 58 -6 98 8 22 16 26 53 26 48 0 86
30 106 83 15 40 14 102 -3 116 -26 22 -79 23 -112 3z m60 -85 c-9 -32 -34 -57
-56 -57 -16 0 -17 3 -7 23 30 57 78 84 63 34z"/>
<path d="M13386 12068 c-39 -38 -56 -63 -61 -90 -11 -60 9 -88 99 -133 44 -22
81 -46 84 -53 6 -18 -54 -69 -120 -103 -40 -20 -58 -35 -58 -48 0 -80 236 36
252 124 3 15 1 43 -4 62 -8 31 -18 39 -92 73 -46 21 -86 43 -90 48 -18 29 60
132 100 132 13 0 24 -4 24 -10 0 -5 5 -10 11 -10 6 0 9 12 7 28 -3 25 -7 27
-50 30 -45 3 -50 1 -102 -50z"/>
<path d="M14664 12101 c-70 -43 -104 -126 -104 -255 0 -107 5 -126 31 -126 28
0 39 31 39 108 0 37 7 90 16 117 18 53 74 114 122 136 l31 13 -31 13 c-42 18
-68 16 -104 -6z"/>
<path d="M14313 12040 c-12 -5 -31 -22 -44 -39 -12 -16 -35 -35 -50 -42 -16
-6 -43 -27 -59 -46 -24 -27 -30 -43 -30 -82 0 -39 5 -53 27 -76 27 -26 31 -27
113 -23 98 5 149 26 198 83 27 30 32 44 32 86 0 89 -50 150 -124 148 -22 0
-51 -4 -63 -9z m101 -69 c45 -50 24 -121 -47 -155 -47 -22 -155 -26 -167 -6
-16 25 -11 41 25 77 28 28 37 32 54 24 28 -16 49 -15 33 1 -20 20 -14 35 21
57 40 26 59 26 81 2z"/>
<path d="M12740 12007 c-15 -7 -39 -39 -60 -81 -31 -62 -35 -80 -38 -168 -4
-85 -2 -99 13 -104 23 -9 35 12 35 62 0 78 59 230 80 207 5 -4 18 -45 30 -90
23 -88 48 -123 84 -123 29 0 46 20 86 100 18 36 39 73 48 83 14 16 16 16 27 0
7 -10 24 -55 39 -101 46 -137 82 -151 80 -30 -2 124 -61 228 -130 228 -39 0
-76 -35 -114 -110 -19 -36 -30 -50 -34 -40 -3 8 -15 41 -26 72 -34 91 -70 120
-120 95z"/>
<path d="M12003 11993 c-36 -7 -108 -84 -141 -154 -60 -123 -51 -207 25 -228
65 -18 118 7 176 84 l34 43 18 -31 c32 -53 64 -77 105 -77 38 0 79 29 53 37
-49 17 -98 90 -109 165 -7 45 -59 147 -78 153 -27 8 -63 11 -83 8z m74 -61
c27 -17 -41 -165 -98 -217 -42 -38 -47 -39 -68 -26 -12 8 -13 18 -3 61 27 118
118 215 169 182z"/>
<path d="M12442 11990 c-37 -15 -61 -86 -73 -211 -11 -118 -8 -153 14 -162 30
-11 40 13 58 135 9 68 23 136 30 151 11 24 42 44 62 39 15 -4 -13 38 -33 48
-22 12 -27 12 -58 0z"/>
<path d="M11280 11865 c-9 -11 -11 -40 -8 -100 6 -81 5 -87 -22 -124 -81 -111
-148 -91 -200 60 -31 91 -56 102 -54 23 2 -76 29 -148 70 -184 30 -26 43 -30
90 -30 51 0 58 3 103 45 l49 46 12 -63 c6 -35 14 -126 17 -202 5 -121 3 -144
-12 -173 -22 -40 -80 -69 -157 -77 -50 -5 -63 -2 -115 25 -32 17 -70 42 -85
56 l-27 26 20 -54 c24 -64 69 -114 117 -130 20 -7 68 -9 113 -7 97 6 161 36
204 97 29 41 30 47 33 169 4 141 -8 243 -44 380 -13 52 -24 115 -24 141 0 74
-46 117 -80 76z"/>
<path d="M10733 11788 c-76 -37 -119 -370 -45 -356 14 3 18 18 23 78 7 89 33
182 54 200 24 20 40 -2 76 -96 30 -80 56 -113 79 -99 16 10 11 79 -11 151 -35
113 -101 158 -176 122z"/>
<path d="M10212 11724 c-37 -45 -62 -121 -62 -189 0 -61 26 -101 84 -129 77
-37 141 -11 172 69 17 46 17 46 38 27 33 -30 62 -42 101 -42 l37 0 -50 55
c-28 31 -58 76 -67 102 -30 84 -34 93 -51 100 -9 3 -24 1 -34 -5 -14 -9 -21
-5 -39 19 -17 23 -29 29 -61 29 -32 0 -43 -6 -68 -36z m122 -56 c26 -30 28
-37 23 -95 -5 -63 -27 -113 -50 -113 -6 0 -27 9 -44 20 -29 17 -33 25 -33 62
0 73 34 158 63 158 7 0 25 -15 41 -32z"/>
<path d="M7702 11738 c-16 -16 -15 -27 8 -100 36 -115 100 -395 100 -438 0
-53 15 -80 44 -80 35 0 51 26 52 84 0 55 54 180 85 199 48 30 121 -53 140
-159 17 -87 25 -104 53 -104 30 0 36 16 36 99 0 55 -6 79 -30 129 -17 33 -49
77 -72 97 -39 36 -43 37 -99 33 -68 -5 -97 -26 -134 -98 l-23 -45 -10 40 c-6
22 -25 96 -42 164 -34 134 -50 175 -75 185 -21 8 -19 8 -33 -6z"/>
<path d="M9353 11605 c-23 -25 -45 -56 -49 -70 -8 -31 -37 -40 -75 -25 -34 14
-48 7 -33 -17 11 -17 27 -28 57 -37 14 -4 17 -17 17 -77 0 -67 2 -73 33 -104
72 -72 215 -73 270 -1 l26 33 -49 -5 c-75 -7 -159 7 -181 29 -15 15 -19 31
-17 66 3 44 5 46 43 58 70 20 106 45 121 80 19 47 18 62 -11 90 -18 19 -35 25
-66 25 -37 0 -48 -6 -86 -45z m105 -37 c-6 -18 -54 -51 -68 -46 -18 6 28 58
52 58 11 0 18 -5 16 -12z"/>
<path d="M9030 11525 c-7 -9 -18 -68 -24 -133 -13 -135 -17 -140 -96 -100 -36
18 -52 35 -77 83 -25 47 -37 60 -55 60 -20 0 -23 -4 -20 -30 8 -76 66 -161
132 -195 93 -48 155 -45 179 8 17 36 34 187 29 250 -6 67 -38 93 -68 57z"/>
<path d="M8457 11493 c-37 -40 -77 -134 -84 -197 -7 -69 15 -96 81 -96 39 0
48 5 82 42 27 30 39 38 42 28 10 -28 61 -70 86 -70 24 0 56 23 56 41 0 5 -5 8
-11 7 -22 -5 -52 52 -79 148 -30 109 -43 124 -111 124 -26 0 -42 -7 -62 -27z
m68 -90 c-8 -45 -28 -85 -51 -104 -16 -13 -17 -11 -11 19 10 50 44 122 58 122
8 0 9 -12 4 -37z"/>
<path d="M10622 11128 c-29 -36 -24 -184 14 -359 5 -23 2 -27 -27 -33 -45 -9
-129 -98 -169 -179 -24 -48 -31 -77 -32 -130 -2 -64 -1 -69 30 -99 29 -30 38
-33 106 -36 l74 -4 44 41 c25 22 53 59 63 81 10 22 21 40 24 40 3 0 15 -19 25
-41 26 -54 69 -89 110 -89 39 0 56 15 56 51 0 22 -4 26 -19 22 -12 -3 -25 5
-39 21 -29 38 -108 261 -116 331 -12 102 -57 339 -70 365 -13 28 -56 39 -74
18z m58 -489 c22 -80 -12 -206 -67 -249 -28 -22 -73 -26 -104 -10 -47 26 -4
168 79 258 51 55 78 56 92 1z"/>
<path d="M8714 10834 c-7 -27 1 -258 14 -432 6 -74 11 -95 25 -103 9 -6 17
-18 17 -27 0 -29 29 -62 54 -62 30 0 39 12 61 80 42 129 117 239 183 267 62
26 83 -5 103 -155 14 -99 22 -114 58 -110 23 3 26 8 29 46 5 63 -15 176 -40
228 -27 57 -56 77 -114 76 -87 -2 -169 -71 -237 -199 l-35 -66 -11 54 c-17 83
-31 225 -31 312 0 90 -10 117 -45 117 -18 0 -26 -7 -31 -26z"/>
<path d="M9485 10688 c-47 -37 -111 -149 -130 -226 -36 -147 1 -222 113 -230
33 -2 75 1 94 7 43 14 101 74 122 126 l17 39 -23 -21 c-13 -12 -52 -35 -88
-52 -50 -24 -73 -30 -100 -25 -58 11 -73 31 -66 87 12 87 19 97 71 97 39 0 50
5 85 40 37 37 40 44 40 94 0 45 -4 58 -22 70 -32 22 -81 20 -113 -6z m75 -69
c0 -31 -17 -57 -50 -74 -51 -26 -52 -18 -10 48 31 49 60 62 60 26z"/>
<path d="M9910 10681 c-77 -41 -162 -214 -164 -334 -1 -75 21 -97 98 -97 75 0
150 55 216 158 l28 43 21 -34 c29 -47 114 -125 144 -132 14 -4 33 -3 42 2 14
8 8 20 -44 85 -34 42 -74 104 -91 139 -16 35 -34 71 -39 79 -5 8 -15 28 -22
44 -16 33 -77 65 -124 66 -17 0 -46 -8 -65 -19z m148 -67 c21 -14 22 -18 9
-33 -8 -9 -27 -40 -42 -70 -37 -73 -132 -171 -168 -171 -31 0 -32 6 -12 83 18
70 58 151 90 183 29 29 89 32 123 8z"/>
<path d="M7790 10553 c-51 -35 -95 -116 -116 -212 -29 -140 -9 -190 82 -198
68 -6 104 18 140 96 16 33 32 60 36 60 4 1 14 -12 22 -28 19 -35 69 -79 102
-87 13 -4 37 -1 53 6 l30 12 -52 42 c-65 53 -118 153 -142 269 -10 50 -105 74
-155 40z m106 -57 c17 -14 18 -16 3 -28 -10 -8 -22 -41 -29 -83 -19 -119 -62
-185 -110 -170 -24 8 -27 64 -6 140 33 125 89 180 142 141z"/>
<path d="M11163 10435 c-40 -28 -42 -108 -3 -120 28 -9 56 10 69 46 15 42 14
46 -9 69 -24 24 -29 24 -57 5z"/>
<path d="M6085 10404 c-49 -18 -137 -48 -195 -65 -168 -50 -252 -83 -314 -124
-60 -40 -296 -282 -391 -400 -50 -62 -104 -147 -172 -267 -12 -21 -25 -64 -28
-96 -4 -32 -15 -66 -25 -77 -18 -20 -28 -67 -55 -259 -22 -160 -20 -202 10
-231 32 -32 63 -32 75 0 10 27 30 34 30 11 0 -19 40 -67 51 -61 5 4 9 16 9 27
0 12 3 18 8 14 4 -4 7 -35 8 -69 0 -74 18 -112 106 -226 35 -45 88 -121 118
-169 49 -76 62 -90 110 -114 30 -15 66 -30 80 -32 24 -5 25 -8 22 -70 l-4 -66
-58 -35 c-78 -48 -192 -99 -262 -120 -49 -14 -58 -20 -58 -40 0 -16 -16 -35
-57 -65 -132 -99 -189 -150 -281 -255 -53 -60 -155 -170 -226 -244 -126 -132
-163 -185 -151 -221 7 -21 -34 -110 -50 -110 -23 0 -46 -38 -75 -124 -59 -176
-93 -395 -67 -430 13 -18 12 -22 -8 -38 -42 -33 -73 -139 -90 -302 -9 -83 -18
-153 -21 -158 -3 -4 -11 -8 -19 -8 -22 0 -28 -54 -27 -271 2 -358 35 -494 177
-713 65 -101 119 -211 112 -229 -4 -9 -6 -9 -6 1 -2 22 -54 127 -58 115 -2 -6
8 -41 23 -79 14 -38 39 -105 54 -149 16 -44 42 -114 58 -155 17 -41 44 -111
62 -155 63 -160 105 -212 137 -169 20 27 17 50 -4 28 -16 -15 -19 -13 -47 47
-17 35 -48 100 -69 143 -43 88 -117 270 -117 287 0 8 5 7 15 -1 24 -20 30 -4
18 53 -18 86 -50 158 -122 280 -74 123 -119 219 -145 306 -21 72 -40 257 -32
317 4 27 6 64 6 82 0 19 9 95 19 170 11 75 25 197 31 270 7 82 18 152 29 180
l19 47 -6 -72 c-4 -68 -3 -73 16 -73 13 0 24 10 31 30 5 17 20 34 33 39 20 8
21 10 6 16 -10 4 -25 5 -33 1 -12 -4 -15 5 -15 54 0 33 2 60 5 60 2 0 35 -27
72 -60 66 -59 174 -120 211 -120 10 0 23 5 29 11 8 8 39 7 114 -4 153 -23 156
-25 165 -93 4 -34 2 -69 -4 -88 -81 -235 -165 -432 -195 -459 -27 -24 -38
-188 -14 -215 8 -9 22 -64 32 -122 9 -58 31 -159 47 -225 58 -229 77 -321 99
-484 23 -157 23 -164 5 -176 -17 -13 -17 -16 8 -79 14 -35 26 -69 26 -74 0
-20 59 -154 76 -173 9 -10 25 -19 35 -19 24 0 91 -95 106 -150 7 -25 12 -88
13 -140 0 -92 -1 -97 -37 -158 -20 -34 -38 -61 -39 -59 -2 2 1 32 6 67 15 100
13 160 -5 160 -8 0 -19 -17 -25 -43 -7 -23 -18 -52 -26 -65 -16 -25 -8 -54 8
-31 7 10 8 3 4 -21 -4 -19 -9 -62 -13 -95 -6 -64 -25 -105 -48 -105 -30 0 -82
-106 -61 -127 7 -7 96 84 96 98 0 6 20 30 45 54 53 51 114 152 151 248 24 63
25 69 10 92 -9 13 -16 32 -16 42 0 16 1 16 13 -1 19 -26 44 -10 75 48 24 45
27 62 27 141 -1 66 -5 99 -18 123 -23 42 -45 42 -49 -1 -4 -41 -34 -47 -86
-16 -43 26 -139 46 -107 23 10 -8 29 -14 41 -14 28 0 54 -10 54 -20 0 -4 -14
-10 -31 -14 -24 -4 -35 -2 -45 11 -7 10 -23 18 -36 18 -33 0 -76 107 -77 193
-1 34 3 62 8 62 13 0 41 59 41 87 0 14 -6 23 -15 23 -8 0 -15 -4 -15 -10 0 -5
-6 -10 -14 -10 -9 0 -16 17 -21 51 -4 27 -5 52 -3 55 3 2 42 -23 87 -55 116
-84 152 -96 286 -95 94 0 120 4 180 27 77 30 149 67 240 122 72 43 46 40 -90
-12 -192 -74 -262 -93 -338 -93 -96 0 -155 19 -252 80 -43 27 -87 53 -97 56
-24 7 -23 31 3 45 12 6 75 13 140 16 109 5 119 8 119 25 0 22 -59 52 -136 68
-28 6 -65 20 -83 31 -30 18 -33 23 -27 57 13 80 19 905 7 1085 -9 150 -8 191
3 232 13 46 12 51 -5 68 -24 22 -24 19 6 63 28 41 33 63 10 44 -21 -17 -19 -1
5 38 24 40 31 40 53 2 37 -61 86 -29 102 68 4 25 11 40 17 36 6 -4 9 -1 6 6
-10 32 -27 16 -45 -42 -22 -75 -44 -87 -69 -35 l-16 34 47 72 c27 39 45 75 41
79 -5 4 -29 -17 -56 -47 l-47 -54 -16 44 c-28 74 -48 132 -66 189 -28 86 -39
104 -58 88 -13 -11 -14 -38 -9 -198 3 -102 10 -219 15 -260 5 -41 7 -77 5 -79
-2 -2 -23 2 -46 9 -24 7 -100 20 -170 30 -148 21 -175 33 -286 136 l-74 67 7
56 c21 180 66 355 100 386 22 21 82 140 104 205 13 39 50 92 51 72 0 -7 5 -10
10 -7 6 3 10 16 10 28 0 13 37 60 103 127 56 58 148 156 205 217 70 77 145
144 237 214 75 55 138 105 141 111 3 5 43 26 89 47 45 21 100 50 121 65 49 33
65 33 34 1 -13 -14 -29 -25 -37 -25 -7 0 -13 -4 -13 -10 0 -19 38 -10 69 16
l31 25 17 -35 c9 -20 33 -46 52 -59 88 -58 98 -61 276 -70 293 -16 278 -18
323 26 37 36 39 43 56 146 9 60 16 149 15 198 -2 88 -1 90 34 139 52 71 122
208 147 289 19 61 22 94 23 265 0 203 -14 327 -53 453 -17 54 -17 60 -2 86 15
26 15 33 -3 90 -15 50 -17 79 -12 165 l7 103 -30 32 c-26 26 -30 39 -31 88 -1
32 -3 50 -6 41 -7 -26 -22 -22 -34 9 -7 19 -7 35 2 54 6 17 8 44 4 69 -6 34
-9 39 -21 29 -11 -9 -19 -8 -35 7 -13 12 -40 19 -82 22 -34 2 -66 8 -71 13
-16 14 24 49 58 50 l31 2 -28 4 c-16 3 -39 -3 -53 -12 -22 -14 -24 -14 -24 0
0 24 19 56 56 95 33 35 48 80 29 86 -5 1 -50 -13 -100 -32z m15 -25 c-52 -35
-134 -69 -167 -68 l-38 0 30 14 c59 26 160 63 175 64 13 1 13 0 0 -10z m-233
-115 c-3 -3 -12 -4 -19 -1 -8 3 -5 6 6 6 11 1 17 -2 13 -5z m180 -25 c10 -25
9 -31 -3 -36 -9 -3 -20 -1 -27 6 -8 8 -8 11 3 11 7 0 11 2 8 6 -3 3 -21 -4
-39 -15 -43 -26 -79 -28 -79 -3 0 11 16 26 43 39 60 31 80 29 94 -8z m-172
-49 c7 -11 -38 -24 -57 -17 -8 3 -4 9 12 15 32 14 38 14 45 2z m212 -22 c24
-20 2 -28 -60 -22 -71 7 -93 20 -51 29 16 4 34 8 39 10 14 5 58 -5 72 -17z
m164 -8 c24 -19 24 -19 3 -20 -12 0 -27 6 -34 14 -6 8 -24 17 -38 19 -22 3
-20 4 9 6 24 0 45 -6 60 -19z m-628 -21 c5 -4 7 -14 4 -23 -6 -15 -9 -15 -39
0 l-32 17 24 19 c19 15 25 17 29 6 2 -7 8 -16 14 -19z m247 -28 c0 -12 -21
-19 -38 -13 -11 4 -11 6 0 13 17 11 38 11 38 0z m76 1 c16 -10 -13 -59 -54
-90 l-32 -25 0 43 c0 63 44 100 86 72z m324 -7 c0 -8 -4 -15 -10 -15 -5 0 -10
7 -10 15 0 8 5 15 10 15 6 0 10 -7 10 -15z m-277 -35 c-43 -32 -50 -32 -32 2
16 30 27 37 50 31 17 -5 14 -9 -18 -33z m-178 10 c4 -6 -7 -26 -23 -45 -53
-60 -51 -103 5 -88 17 4 23 1 23 -11 0 -21 -41 -21 -80 -1 -37 19 -38 40 -5
105 20 39 31 50 50 50 13 0 27 -5 30 -10z m-275 -4 c0 -3 -4 -8 -10 -11 -5 -3
-10 -1 -10 4 0 6 5 11 10 11 6 0 10 -2 10 -4z m300 -61 c0 -29 -24 -55 -51
-55 -26 0 -24 23 7 59 28 34 44 33 44 -4z m457 -58 c-2 -7 -12 1 -21 16 -11
16 -15 34 -11 44 6 15 10 12 22 -16 8 -18 12 -38 10 -44z m-297 27 c0 -14 -12
-19 -23 -8 -9 9 4 35 14 28 5 -3 9 -12 9 -20z m78 15 c-2 -6 -8 -10 -13 -10
-5 0 -11 4 -13 10 -2 6 4 11 13 11 9 0 15 -5 13 -11z m102 -32 c0 -33 -56 -49
-90 -27 -13 9 -12 12 4 25 25 19 86 20 86 2z m-235 -26 c3 -5 -4 -13 -16 -16
-23 -8 -34 -1 -24 14 8 13 32 14 40 2z m-172 -51 c33 0 11 -33 -41 -59 -13 -7
-36 -9 -53 -6 -37 8 -39 35 -2 35 25 0 26 1 8 20 -14 16 -15 23 -6 34 11 13
17 12 44 -5 18 -10 40 -19 50 -19z m-429 -31 c-22 -56 -31 -66 -46 -51 -8 8
-3 22 23 56 19 24 35 43 37 41 2 -1 -5 -22 -14 -46z m666 25 c22 -15 40 -28
40 -30 0 -2 -16 -4 -35 -4 -28 0 -35 4 -35 20 0 29 -18 25 -26 -6 -9 -35 8
-44 76 -43 30 0 67 -3 82 -6 24 -6 30 -3 45 24 10 17 21 31 24 31 4 0 9 -33
11 -74 3 -62 7 -79 27 -100 27 -29 59 -34 67 -11 14 35 24 10 24 -59 0 -63 3
-77 20 -89 24 -17 41 -83 19 -75 -32 12 -158 30 -173 25 -9 -4 -16 -13 -16
-21 0 -35 122 -68 179 -48 l30 10 26 -111 c41 -170 57 -429 35 -546 -12 -63
-61 -189 -96 -245 l-25 -41 6 35 c5 30 3 28 -15 -15 -11 -27 -20 -58 -20 -67
0 -29 -33 -88 -49 -88 -14 0 -14 -1 -1 -10 12 -7 12 -12 2 -22 -15 -15 -16
-42 -1 -32 12 7 11 -34 -7 -255 -7 -79 -9 -84 -38 -103 -26 -16 -42 -18 -101
-13 -38 4 -137 10 -220 13 -144 7 -152 8 -199 37 -27 17 -58 42 -68 55 -20 28
-38 110 -38 177 0 68 20 41 22 -30 l2 -62 5 74 6 75 68 -3 c49 -2 82 -9 117
-27 93 -47 159 -41 179 17 12 36 5 37 -21 4 -13 -17 -29 -25 -49 -25 -32 0
-94 23 -119 44 -18 16 -54 25 -137 36 -52 7 -75 17 -140 61 -110 76 -200 170
-250 262 -24 42 -43 80 -43 83 0 3 17 3 38 0 37 -6 82 9 89 30 2 6 -18 17 -44
25 -42 12 -48 17 -45 39 2 14 4 47 5 74 2 47 0 50 -51 95 -59 52 -64 75 -28
118 l24 27 28 -54 c40 -74 87 -125 107 -117 14 5 17 21 17 87 0 76 1 80 23 80
22 0 21 1 -3 13 -16 7 -37 38 -58 81 -32 68 -33 68 -67 63 -21 -4 -35 -1 -38
6 -2 7 -3 -13 -1 -43 l3 -55 -9 50 c-6 28 -8 60 -5 71 4 20 10 21 75 16 58 -4
70 -2 75 12 3 9 7 23 10 31 4 13 8 12 25 -5 22 -22 57 -33 91 -28 13 2 29 -3
34 -10 24 -30 88 -26 201 13 60 20 113 41 117 45 5 4 -7 13 -27 20 -42 14 -98
6 -169 -21 -63 -25 -79 -13 -71 57 3 27 2 60 -4 73 -8 22 -9 20 -15 -23 -8
-54 -33 -103 -58 -111 -9 -3 -29 -1 -44 5 l-27 10 4 103 c2 79 8 110 23 136
11 19 24 32 29 30 5 -2 9 -26 10 -53 2 -93 47 -63 91 60 15 43 35 84 43 91 9
8 31 10 56 7 33 -5 52 0 99 25 45 24 63 28 77 21 27 -14 83 -12 105 4 16 12
13 13 -32 9 -64 -7 -74 8 -34 47 54 55 86 60 141 24z m-497 -13 c-3 -10 -18
-32 -35 -47 l-30 -29 28 48 c30 49 46 61 37 28z m742 -31 c25 -49 31 -84 19
-114 -18 -47 -54 26 -54 109 0 30 2 55 5 55 2 0 16 -22 30 -50z m65 0 c0 -9
-19 -24 -24 -19 -2 2 -7 15 -11 27 -6 22 -5 23 14 13 12 -7 21 -16 21 -21z
m-732 -27 c-2 -9 -8 -18 -15 -20 -7 -3 -9 3 -6 16 6 25 26 28 21 4z m92 -23
c0 -5 -7 -10 -15 -10 -8 0 -15 5 -15 10 0 6 7 10 15 10 8 0 15 -4 15 -10z
m680 -68 c-7 -13 -9 -8 -9 23 0 35 1 37 10 17 6 -15 5 -30 -1 -40z m-1071 -34
c-17 -53 -28 -72 -57 -95 -21 -15 -43 -34 -50 -43 -11 -13 -13 -10 -8 18 13
74 105 217 126 196 5 -5 1 -37 -11 -76z m271 38 c0 -20 -47 -123 -59 -131 -22
-13 2 116 26 140 16 17 33 12 33 -9z m-180 -71 c-7 -8 -21 -15 -32 -15 -15 0
-18 4 -13 18 4 9 10 25 12 35 5 17 7 17 25 -3 16 -17 17 -24 8 -35z m-295
-141 c-30 -75 -35 -82 -30 -46 5 43 57 161 63 144 2 -6 -13 -50 -33 -98z m141
27 c-9 -10 -16 -29 -16 -44 0 -25 -16 -45 -26 -34 -3 3 -1 22 5 42 11 41 43
83 49 65 2 -6 -3 -19 -12 -29z m127 -49 c-4 -50 -10 -82 -17 -82 -6 1 -24 11
-39 24 -23 18 -28 30 -25 57 3 29 7 34 29 34 19 -1 25 3 21 14 -4 11 26 46 34
38 1 -1 0 -39 -3 -85z m-69 -87 c24 -19 14 -45 -19 -45 -21 0 -25 5 -25 30 0
33 14 38 44 15z m-254 -115 c-16 -38 -30 -29 -30 19 0 47 9 57 28 30 11 -16
12 -26 2 -49z m90 1 c0 -17 -99 -200 -104 -192 -12 19 35 134 77 189 11 14 27
16 27 3z m-144 -158 c-8 -19 -26 -7 -26 17 0 11 6 43 13 72 l12 53 3 -64 c2
-35 1 -70 -2 -78z m288 105 c7 -13 17 -35 20 -51 6 -26 5 -27 -21 -21 -16 4
-31 9 -35 11 -10 5 -10 45 -2 67 9 22 21 20 38 -6z m-160 -47 c-36 -66 -43
-59 -9 9 14 29 29 50 32 47 3 -3 -7 -28 -23 -56z m46 -21 c-8 -5 -16 -8 -17
-6 -2 2 -1 11 3 20 5 13 10 14 18 6 8 -8 7 -13 -4 -20z m157 -91 c7 -13 13
-44 13 -68 0 -42 -1 -43 -19 -27 -10 9 -31 39 -46 67 -21 40 -25 53 -15 59 19
12 53 -4 67 -31z m-352 -16 c-3 -16 -9 -38 -12 -50 -6 -27 12 -31 26 -5 8 13
10 0 11 -51 0 -65 -1 -68 -22 -65 -21 3 -23 9 -26 78 -3 83 3 120 19 120 7 0
9 -10 4 -27z m91 -3 c10 0 14 -12 14 -39 0 -22 3 -48 6 -58 3 -10 -4 -4 -16
14 -11 17 -23 49 -26 70 -2 21 -2 32 2 26 3 -7 12 -13 20 -13z m12 -162 l-4
-23 -11 25 c-5 14 -13 39 -17 55 l-7 30 21 -32 c12 -18 20 -43 18 -55z m96 11
c29 -23 32 -42 12 -77 -12 -23 -13 -22 -34 33 -12 31 -22 59 -22 61 0 10 19 2
44 -17z m281 -567 c-3 -3 -11 0 -18 7 -9 10 -8 11 6 5 10 -3 15 -9 12 -12z
m-510 -1744 c19 -61 35 -116 35 -123 0 -6 -14 -33 -32 -61 l-32 -49 -12 85
c-15 106 -18 274 -4 265 5 -3 25 -56 45 -117z m-43 -630 c1 -2 4 -268 7 -593
l6 -589 54 -27 c30 -15 70 -30 89 -34 19 -3 46 -11 61 -17 23 -10 13 -13 -79
-25 -58 -8 -114 -15 -124 -16 -17 -2 -22 12 -42 108 -12 61 -38 173 -57 250
-19 77 -43 198 -52 269 -10 71 -25 161 -34 200 l-17 71 39 85 c57 121 127 292
127 307 0 11 16 19 22 11z m238 -1917 c0 -5 -3 -17 -6 -26 -6 -14 -8 -14 -25
1 -26 23 -24 34 6 34 14 0 25 -4 25 -9z m84 -7 c10 -26 6 -87 -8 -119 -12 -27
-14 -28 -21 -10 -4 11 -16 39 -26 62 -23 55 -16 83 21 83 16 0 30 -7 34 -16z
m-44 -158 c0 -48 -19 -17 -25 39 -5 50 -5 50 9 20 9 -16 15 -43 16 -59z"/>
<path d="M6233 9376 c-4 -8 -19 -16 -33 -18 l-25 -3 29 -28 c39 -37 91 -38
100 -2 4 14 2 34 -4 45 -12 23 -55 27 -67 6z"/>
<path d="M5724 9283 c-3 -10 -11 -28 -16 -40 -9 -18 -6 -26 18 -47 40 -35 61
-40 89 -22 45 29 29 96 -26 115 -44 15 -59 14 -65 -6z"/>
<path d="M6153 9234 c-9 -25 6 -155 27 -230 27 -92 26 -118 -5 -138 -31 -21
-60 -20 -96 1 -40 24 -57 6 -29 -30 18 -23 29 -27 70 -27 61 0 119 26 126 57
9 33 0 108 -25 203 -11 47 -24 106 -27 133 -5 48 -28 65 -41 31z"/>
<path d="M5784 8643 c-29 -6 -77 -57 -72 -79 2 -13 21 -21 68 -32 36 -7 85
-21 110 -29 59 -21 172 -28 200 -13 20 11 50 65 50 90 0 5 -15 17 -32 25 -18
9 -44 22 -58 30 -18 11 -55 14 -135 13 -60 0 -120 -3 -131 -5z m204 -69 c79
-20 95 -30 58 -40 -28 -7 -54 -4 -151 16 -33 7 -70 14 -82 16 -13 3 -23 9 -23
14 0 16 124 12 198 -6z"/>
<path d="M12780 9407 c0 -4 20 -28 45 -53 25 -24 45 -41 45 -37 0 10 -90 99
-90 90z"/>
<path d="M12411 9371 c-10 -7 -2 -15 31 -35 25 -14 53 -26 63 -26 18 0 18 0 1
-13 -16 -12 -18 -20 -10 -63 10 -54 37 -71 61 -38 15 21 17 70 3 79 -18 11
-11 25 13 25 27 0 105 -35 130 -57 21 -19 41 -6 35 23 -3 19 -40 41 -152 89
-59 25 -147 34 -175 16z"/>
<path d="M12126 9148 c-24 -83 -46 -181 -46 -202 0 -40 17 -66 55 -82 45 -18
145 -18 171 0 18 14 18 15 -6 20 -14 2 -52 7 -84 11 -33 3 -66 11 -73 17 -17
14 -16 81 2 142 20 65 20 106 0 106 -9 0 -17 -6 -19 -12z"/>
<path d="M12095 8791 c-11 -5 -29 -19 -41 -32 -38 -44 -60 -169 -30 -169 8 0
17 -8 20 -18 4 -10 25 -29 48 -42 62 -35 200 -39 332 -11 55 12 103 24 108 27
4 3 8 22 8 43 0 20 5 42 12 49 6 6 9 14 5 18 -10 10 -28 -7 -43 -41 -12 -30
-20 -34 -86 -50 -40 -10 -116 -20 -168 -22 -88 -4 -98 -3 -130 19 -56 38 -83
155 -41 178 23 12 103 13 245 3 90 -6 103 -9 149 -40 27 -18 52 -32 54 -29 11
11 -11 46 -44 72 -31 23 -51 29 -127 36 -154 15 -250 18 -271 9z"/>
<path d="M12824 8429 c-49 -50 -111 -106 -139 -125 -43 -29 -46 -34 -25 -34
36 0 86 34 152 103 61 64 114 134 106 142 -2 2 -44 -36 -94 -86z"/>
<path d="M6423 8023 c-14 -5 -17 -42 -5 -59 11 -16 39 -23 50 -12 24 24 143
-124 217 -272 21 -41 58 -131 83 -200 43 -120 45 -131 51 -270 5 -103 11 -155
23 -180 9 -19 29 -102 43 -185 33 -183 71 -342 91 -372 8 -13 22 -23 30 -23
22 0 16 51 -24 205 -51 198 -94 450 -99 575 -2 63 -6 125 -9 138 -7 33 -37 24
-45 -13 -5 -24 -7 -20 -8 21 -2 103 -68 302 -138 418 -45 73 -146 195 -182
218 -25 18 -54 21 -78 11z"/>
<path d="M11959 7855 c-33 -60 -49 -158 -49 -288 0 -120 1 -127 20 -127 19 0
20 7 20 96 0 53 7 141 16 195 8 54 14 111 12 126 l-3 28 -16 -30z"/>
<path d="M6680 7525 c0 -25 -4 -45 -10 -45 -5 0 -10 8 -10 18 0 22 -17 48 -25
40 -7 -6 11 -64 41 -133 15 -37 16 -81 12 -510 -3 -258 -3 -481 1 -495 7 -24
8 -24 18 10 20 63 25 180 24 530 -1 392 -17 630 -41 630 -6 0 -10 -20 -10 -45z"/>
<path d="M4890 7150 c0 -14 51 -46 100 -62 25 -9 54 -19 64 -24 31 -12 11 9
-26 28 -84 43 -138 65 -138 58z"/>
<path d="M10721 7017 c-13 -15 -26 -48 -33 -85 -10 -52 -9 -71 6 -127 10 -36
23 -68 28 -71 21 -13 28 13 17 70 -12 65 -4 145 16 173 18 23 49 7 53 -28 8
-75 22 -99 73 -125 44 -22 50 -28 44 -47 -18 -60 -24 -119 -12 -138 14 -23 89
-59 120 -58 36 1 137 -30 201 -63 87 -44 129 -58 236 -77 l95 -17 5 -40 c8
-61 30 -50 60 31 15 39 39 88 53 109 29 41 33 61 17 71 -5 3 -10 1 -10 -4 0
-6 -9 -11 -19 -11 -20 0 -61 -43 -61 -64 0 -7 -6 -20 -13 -30 -12 -16 -18 -15
-107 10 -52 15 -147 53 -210 84 -128 62 -247 93 -281 72 -37 -23 -63 8 -48 58
4 14 7 46 8 72 1 40 -3 50 -25 65 -53 36 -71 59 -78 102 -13 81 -87 118 -135
68z"/>
<path d="M4516 6924 c-16 -41 1 -101 22 -79 4 4 1 10 -5 12 -9 3 -11 17 -7 44
7 40 1 52 -10 23z"/>
<path d="M6821 6789 c0 -41 4 -83 9 -94 5 -12 6 17 3 70 -7 111 -13 123 -12
24z"/>
<path d="M6800 6635 c-12 -33 -13 -228 0 -315 5 -36 18 -179 30 -319 18 -213
21 -304 17 -570 -3 -174 -8 -331 -12 -350 -7 -32 -7 -33 15 -21 49 26 53 60
51 404 0 175 -5 366 -11 425 -16 180 -41 413 -50 476 -6 33 -10 110 -10 172 0
112 -11 148 -30 98z"/>
<path d="M5142 6440 c0 -14 2 -19 5 -12 2 6 2 18 0 25 -3 6 -5 1 -5 -13z"/>
<path d="M6878 6423 c-19 -5 -24 -18 -9 -27 14 -9 41 4 41 20 0 14 -3 15 -32
7z"/>
<path d="M6930 6379 c0 -22 23 -115 31 -123 5 -6 9 -18 9 -28 0 -10 4 -18 8
-18 23 0 82 -264 87 -390 2 -56 1 -77 -3 -51 -6 35 -9 41 -18 30 -19 -23 -43
-114 -54 -208 -17 -135 -50 -322 -65 -371 -8 -25 -19 -85 -25 -135 -6 -49 -26
-146 -45 -215 -18 -69 -41 -161 -51 -205 -15 -73 -18 -77 -25 -50 -5 17 -7
104 -5 195 2 111 1 145 -4 105 -9 -62 -28 -131 -29 -105 -1 10 -4 11 -12 3 -8
-8 -11 -55 -8 -150 2 -76 3 -176 2 -223 0 -47 2 -74 4 -60 5 22 7 20 20 -20
11 -35 16 -161 23 -560 9 -505 25 -930 37 -960 3 -8 9 -386 13 -840 7 -701 10
-835 23 -890 21 -84 21 -104 2 -96 -22 8 -35 -32 -35 -110 0 -75 7 -73 -130
-43 -55 11 -167 23 -264 28 -92 5 -172 13 -176 18 -4 4 -3 46 1 93 19 217 8
543 -37 1010 -21 230 -75 557 -137 833 -13 59 -21 107 -16 107 6 0 20 -42 55
-162 6 -20 19 -23 29 -8 3 5 -8 59 -24 120 -35 126 -37 145 -15 154 12 5 15
15 11 39 -10 58 -31 127 -39 127 -5 0 -8 -35 -8 -77 -1 -68 -2 -76 -14 -60 -8
10 -17 42 -21 72 -6 48 -23 74 -39 58 -18 -18 -4 -189 30 -348 83 -397 118
-633 144 -970 11 -137 27 -313 36 -390 17 -158 23 -378 11 -505 -4 -47 -3 -91
2 -99 5 -7 31 -19 57 -26 l49 -12 0 -71 c0 -54 4 -74 19 -91 29 -32 98 -61
145 -61 35 0 48 6 71 30 26 28 30 29 80 21 29 -5 55 -13 59 -20 4 -6 85 -18
197 -28 205 -18 208 -18 367 -15 102 2 109 3 132 28 27 29 40 74 30 104 -6 20
-8 20 -20 4 -12 -17 -15 -16 -39 13 -35 42 -110 78 -216 104 -47 11 -105 31
-129 45 -53 30 -81 31 -81 5 0 -40 89 -87 241 -126 68 -18 189 -72 189 -84 0
-44 -161 -62 -325 -36 -55 8 -131 15 -168 15 -40 0 -77 6 -90 14 -23 15 -214
30 -241 20 -9 -3 -16 -12 -16 -20 0 -23 -48 -28 -95 -9 -56 21 -60 27 -60 94
l0 54 105 -7 c58 -3 136 -13 175 -21 81 -17 133 -19 170 -5 28 11 48 49 34 65
-10 10 -13 105 -3 105 3 0 14 -10 23 -22 11 -13 23 -18 31 -13 13 8 13 12 -14
220 -11 81 -17 276 -21 735 -6 590 -10 729 -36 1165 -15 271 -17 584 -2 593 8
5 9 13 3 22 -6 8 -10 136 -10 285 0 149 -5 317 -10 375 -9 100 -8 108 15 170
28 75 63 188 105 345 16 61 36 127 45 148 9 21 13 42 10 47 -4 6 3 43 14 83
11 39 27 113 36 162 9 50 23 122 30 160 17 84 19 181 5 190 -18 11 -10 32 12
31 18 -1 24 6 31 44 14 74 -1 212 -39 358 -20 75 -44 170 -54 211 -11 40 -22
76 -25 80 -10 9 -65 10 -65 0z m120 -786 c0 -10 -5 -25 -10 -33 -7 -11 -10 -7
-10 18 0 17 5 32 10 32 6 0 10 -8 10 -17z m-23 -115 c-3 -8 -6 -5 -6 6 -1 11
2 17 5 13 3 -3 4 -12 1 -19z m-37 -236 c-6 -38 -20 -96 -31 -128 l-19 -59 6
48 c3 27 12 66 19 87 7 21 17 59 20 85 4 25 10 44 12 41 3 -3 0 -36 -7 -74z
m-124 -491 c-7 -48 -25 -96 -32 -89 -5 6 28 128 35 128 2 0 1 -18 -3 -39z
m-39 -123 c-3 -8 -6 -5 -6 6 -1 11 2 17 5 13 3 -3 4 -12 1 -19z"/>
<path d="M5152 6360 c0 -14 2 -19 5 -12 2 6 2 18 0 25 -3 6 -5 1 -5 -13z"/>
<path d="M6585 4920 c-38 -4 -140 -8 -225 -9 -194 -1 -279 -18 -562 -112 -252
-83 -288 -100 -288 -134 0 -19 5 -25 23 -25 13 0 32 9 44 19 11 11 36 24 54
29 19 5 111 33 204 62 260 79 324 91 540 99 159 6 197 10 235 27 47 22 85 55
59 52 -8 0 -45 -4 -84 -8z"/>
<path d="M6732 4870 c0 -14 2 -19 5 -12 2 6 2 18 0 25 -3 6 -5 1 -5 -13z"/>
<path d="M4971 4426 c-7 -8 -8 -17 -3 -20 6 -3 13 1 16 10 9 23 2 28 -13 10z"/>
<path d="M6217 4168 c-9 -18 -21 -72 -26 -120 -11 -97 -28 -136 -95 -222 -50
-65 -50 -64 -36 -86 7 -11 10 -12 10 -2 0 8 27 44 60 80 77 85 97 139 106 276
4 58 5 106 2 106 -3 0 -12 -15 -21 -32z"/>
<path d="M4515 4122 c-7 -56 10 -166 31 -196 8 -13 14 -45 14 -85 0 -89 45
-155 118 -174 18 -4 12 6 -28 50 l-50 55 1 116 c0 109 1 115 14 81 18 -51 46
-102 51 -96 3 2 -9 39 -26 81 -16 42 -30 87 -30 99 0 17 -2 19 -10 7 -10 -16
-8 -21 -32 60 -19 65 -44 66 -53 2z"/>
<path d="M4726 3659 c-3 -34 -6 -91 -6 -126 0 -70 -8 -93 -50 -138 -15 -16
-31 -40 -34 -52 -4 -11 -22 -33 -41 -48 -39 -29 -44 -57 -19 -93 21 -31 31
-28 26 8 -3 23 3 38 27 65 17 20 31 40 31 45 0 5 17 29 38 53 l39 45 7 142 c4
82 3 147 -2 152 -5 5 -12 -16 -16 -53z"/>
<path d="M4856 3603 c-4 -21 -10 -85 -15 -143 -9 -114 -20 -157 -51 -208 -29
-47 -44 -36 -51 39 l-6 64 -1 -62 c-2 -69 5 -63 -77 -67 -13 -1 -20 -8 -20
-21 0 -17 6 -20 38 -17 21 2 45 -2 53 -9 10 -8 14 -8 14 0 0 6 11 11 25 11 31
0 47 25 75 115 24 78 39 167 47 268 4 55 2 67 -10 67 -9 0 -17 -14 -21 -37z"/>
<path d="M5931 3503 c-8 -21 -19 -45 -26 -53 -11 -14 -55 -134 -55 -151 0 -4
6 -9 13 -11 11 -2 8 -32 -13 -143 -47 -245 -78 -417 -96 -530 -10 -65 -23
-114 -31 -120 -9 -7 -19 -52 -28 -122 -8 -62 -28 -180 -45 -264 -17 -84 -40
-236 -50 -338 -25 -243 -34 -292 -85 -506 -47 -192 -96 -354 -119 -386 -21
-30 -181 -156 -242 -190 -51 -29 -54 -33 -54 -69 0 -41 -2 -43 -72 -55 -36 -6
-38 -4 -38 20 0 30 -21 33 -58 6 -15 -10 -34 -21 -42 -24 -12 -4 -12 -6 2 -6
9 -1 33 9 53 21 l37 21 -4 -24 c-3 -22 -9 -25 -80 -33 -144 -17 -138 -36 -128
419 10 415 14 465 40 465 11 0 20 11 24 27 13 54 18 577 7 738 -34 483 -34
495 -12 626 25 145 28 269 7 269 -9 0 -16 -18 -20 -54 -6 -43 -11 -55 -28 -59
-20 -6 -20 -8 -14 -334 20 -1076 20 -1054 -2 -1060 -31 -8 -43 -57 -37 -148 4
-49 0 -134 -9 -218 -22 -189 -22 -616 -1 -657 21 -41 63 -70 101 -70 36 0 41
-9 22 -39 -9 -15 -9 -23 1 -34 15 -19 105 -62 159 -77 23 -6 65 -22 94 -35 34
-16 71 -25 103 -25 73 0 208 -26 265 -51 28 -12 59 -19 72 -16 13 4 29 2 36
-2 20 -12 130 12 182 39 25 13 63 29 84 35 49 15 56 32 20 45 -22 9 -38 7 -74
-6 -49 -19 -213 -26 -262 -10 -21 6 -28 5 -28 -5 1 -14 65 -49 90 -49 9 0 7
-5 -5 -14 -17 -12 -26 -10 -80 20 -62 34 -99 42 -282 63 -42 5 -86 17 -107 29
-19 12 -51 24 -70 27 -18 4 -48 15 -65 26 -26 15 -32 25 -29 47 2 20 9 28 28
30 14 2 28 10 32 17 4 7 25 16 45 20 69 13 76 21 69 76 -7 48 -6 48 31 68 21
10 66 40 101 65 34 25 66 46 71 46 6 0 6 -12 1 -31 -18 -62 25 -102 99 -91 28
4 37 0 57 -24 14 -16 31 -41 39 -55 15 -28 76 -69 102 -69 8 0 31 -14 51 -31
41 -36 90 -59 126 -59 14 0 31 -9 40 -22 l16 -22 0 26 c0 31 -16 46 -61 54
-42 8 -64 19 -109 54 -19 15 -52 30 -72 34 -31 6 -41 14 -55 44 -16 36 -146
172 -164 172 -16 0 -10 34 12 70 31 50 94 231 130 373 17 67 33 124 35 126 3
3 4 -63 3 -146 0 -84 2 -157 6 -162 9 -15 35 -14 35 2 7 295 24 689 34 807 22
252 91 645 120 680 7 8 20 74 30 145 10 72 26 171 36 220 10 50 31 158 45 240
15 83 40 205 57 273 28 115 30 152 10 152 -4 0 -14 -17 -21 -37z m-540 -2783
c30 -17 22 -30 -11 -19 -16 6 -27 15 -24 20 7 11 11 11 35 -1z m-491 -277 c0
-19 -3 -24 -10 -17 -6 6 -8 18 -4 27 9 24 14 21 14 -10z"/>
<path d="M6111 3164 c0 -11 3 -14 6 -6 3 7 2 16 -1 19 -3 4 -6 -2 -5 -13z"/>
</g>
</svg>
